<svg width="67" height="55" viewBox="0 0 67 55" fill="none" xmlns="http://www.w3.org/2000/svg">
<circle cx="30" cy="37" r="15" fill="#8E5572"/>
<circle cx="50" cy="24" r="15" fill="#8E5572"/>
<circle cx="45" cy="39" r="8" fill="#8E5572"/>
<circle cx="15" cy="18" r="15" fill="#8E5572"/>
<circle cx="39.5" cy="15.5" r="13.5" fill="#B43777"/>
<circle cx="55" cy="37" r="8" fill="#B73678"/>
<circle cx="10" cy="33" r="7" fill="#B73678"/>
<circle cx="15.5" cy="37.5" r="4.5" fill="#B73678"/>
<circle cx="63.5" cy="3.5" r="3.5" fill="#B73678"/>
<path d="M25.7661 39.1C25.3328 39.1 24.9695 39.0267 24.6761 38.88C24.3895 38.7333 24.1761 38.52 24.0361 38.24C23.8961 37.9533 23.8261 37.6 23.8261 37.18V35.05H23.3061C23.1461 35.05 23.0228 35.01 22.9361 34.93C22.8495 34.8433 22.8061 34.7267 22.8061 34.58C22.8061 34.4267 22.8495 34.31 22.9361 34.23C23.0228 34.15 23.1461 34.11 23.3061 34.11H23.8261V33.2C23.8261 32.9933 23.8795 32.8367 23.9861 32.73C24.0995 32.6233 24.2561 32.57 24.4561 32.57C24.6561 32.57 24.8095 32.6233 24.9161 32.73C25.0228 32.8367 25.0761 32.9933 25.0761 33.2V34.11H26.1361C26.2961 34.11 26.4195 34.15 26.5061 34.23C26.5928 34.31 26.6361 34.4267 26.6361 34.58C26.6361 34.7267 26.5928 34.8433 26.5061 34.93C26.4195 35.01 26.2961 35.05 26.1361 35.05H25.0761V37.11C25.0761 37.43 25.1461 37.67 25.2861 37.83C25.4261 37.99 25.6528 38.07 25.9661 38.07C26.0795 38.07 26.1795 38.06 26.2661 38.04C26.3528 38.02 26.4295 38.0067 26.4961 38C26.5761 37.9933 26.6428 38.02 26.6961 38.08C26.7495 38.1333 26.7761 38.2467 26.7761 38.42C26.7761 38.5533 26.7528 38.6733 26.7061 38.78C26.6661 38.88 26.5895 38.95 26.4761 38.99C26.3895 39.0167 26.2761 39.04 26.1361 39.06C25.9961 39.0867 25.8728 39.1 25.7661 39.1ZM29.7252 39.1C29.1719 39.1 28.6952 38.9967 28.2952 38.79C27.8952 38.5833 27.5852 38.29 27.3652 37.91C27.1519 37.53 27.0452 37.08 27.0452 36.56C27.0452 36.0533 27.1485 35.61 27.3552 35.23C27.5685 34.85 27.8585 34.5533 28.2252 34.34C28.5985 34.12 29.0219 34.01 29.4952 34.01C29.8419 34.01 30.1519 34.0667 30.4252 34.18C30.7052 34.2933 30.9419 34.4567 31.1352 34.67C31.3352 34.8833 31.4852 35.1433 31.5852 35.45C31.6919 35.75 31.7452 36.09 31.7452 36.47C31.7452 36.59 31.7019 36.6833 31.6152 36.75C31.5352 36.81 31.4185 36.84 31.2652 36.84H28.0552V36.12H30.8652L30.7052 36.27C30.7052 35.9633 30.6585 35.7067 30.5652 35.5C30.4785 35.2933 30.3485 35.1367 30.1752 35.03C30.0085 34.9167 29.7985 34.86 29.5452 34.86C29.2652 34.86 29.0252 34.9267 28.8252 35.06C28.6319 35.1867 28.4819 35.37 28.3752 35.61C28.2752 35.8433 28.2252 36.1233 28.2252 36.45V36.52C28.2252 37.0667 28.3519 37.4767 28.6052 37.75C28.8652 38.0167 29.2452 38.15 29.7452 38.15C29.9185 38.15 30.1119 38.13 30.3252 38.09C30.5452 38.0433 30.7519 37.9667 30.9452 37.86C31.0852 37.78 31.2085 37.7467 31.3152 37.76C31.4219 37.7667 31.5052 37.8033 31.5652 37.87C31.6319 37.9367 31.6719 38.02 31.6852 38.12C31.6985 38.2133 31.6785 38.31 31.6252 38.41C31.5785 38.51 31.4952 38.5967 31.3752 38.67C31.1419 38.8167 30.8719 38.9267 30.5652 39C30.2652 39.0667 29.9852 39.1 29.7252 39.1ZM35.1451 39.1C34.5918 39.1 34.1151 38.9967 33.7151 38.79C33.3151 38.5833 33.0051 38.29 32.7851 37.91C32.5718 37.53 32.4651 37.08 32.4651 36.56C32.4651 36.0533 32.5684 35.61 32.7751 35.23C32.9884 34.85 33.2784 34.5533 33.6451 34.34C34.0184 34.12 34.4418 34.01 34.9151 34.01C35.2618 34.01 35.5718 34.0667 35.8451 34.18C36.1251 34.2933 36.3618 34.4567 36.5551 34.67C36.7551 34.8833 36.9051 35.1433 37.0051 35.45C37.1118 35.75 37.1651 36.09 37.1651 36.47C37.1651 36.59 37.1218 36.6833 37.0351 36.75C36.9551 36.81 36.8384 36.84 36.6851 36.84H33.4751V36.12H36.2851L36.1251 36.27C36.1251 35.9633 36.0784 35.7067 35.9851 35.5C35.8984 35.2933 35.7684 35.1367 35.5951 35.03C35.4284 34.9167 35.2184 34.86 34.9651 34.86C34.6851 34.86 34.4451 34.9267 34.2451 35.06C34.0518 35.1867 33.9018 35.37 33.7951 35.61C33.6951 35.8433 33.6451 36.1233 33.6451 36.45V36.52C33.6451 37.0667 33.7718 37.4767 34.0251 37.75C34.2851 38.0167 34.6651 38.15 35.1651 38.15C35.3384 38.15 35.5318 38.13 35.7451 38.09C35.9651 38.0433 36.1718 37.9667 36.3651 37.86C36.5051 37.78 36.6284 37.7467 36.7351 37.76C36.8418 37.7667 36.9251 37.8033 36.9851 37.87C37.0518 37.9367 37.0918 38.02 37.1051 38.12C37.1184 38.2133 37.0984 38.31 37.0451 38.41C36.9984 38.51 36.9151 38.5967 36.7951 38.67C36.5618 38.8167 36.2918 38.9267 35.9851 39C35.6851 39.0667 35.4051 39.1 35.1451 39.1ZM38.775 39.08C38.575 39.08 38.4217 39.0267 38.315 38.92C38.2084 38.8067 38.155 38.6467 38.155 38.44V34.66C38.155 34.4533 38.2084 34.2967 38.315 34.19C38.4217 34.0833 38.5717 34.03 38.765 34.03C38.9584 34.03 39.1084 34.0833 39.215 34.19C39.3217 34.2967 39.375 34.4533 39.375 34.66V35.34L39.265 35.09C39.4117 34.7367 39.6384 34.47 39.945 34.29C40.2584 34.1033 40.6117 34.01 41.005 34.01C41.3984 34.01 41.7217 34.0833 41.975 34.23C42.2284 34.3767 42.4184 34.6 42.545 34.9C42.6717 35.1933 42.735 35.5667 42.735 36.02V38.44C42.735 38.6467 42.6817 38.8067 42.575 38.92C42.4684 39.0267 42.315 39.08 42.115 39.08C41.915 39.08 41.7584 39.0267 41.645 38.92C41.5384 38.8067 41.485 38.6467 41.485 38.44V36.08C41.485 35.7 41.4117 35.4233 41.265 35.25C41.125 35.0767 40.905 34.99 40.605 34.99C40.2384 34.99 39.945 35.1067 39.725 35.34C39.5117 35.5667 39.405 35.87 39.405 36.25V38.44C39.405 38.8667 39.195 39.08 38.775 39.08Z" fill="white"/>
<path d="M20.9055 31.16C20.5455 31.16 20.2522 31.0733 20.0255 30.9C19.8122 30.7267 19.6388 30.4533 19.5055 30.08L15.3255 18.26C15.1788 17.8333 15.2055 17.4733 15.4055 17.18C15.6188 16.8867 15.9722 16.74 16.4655 16.74C16.8255 16.74 17.1055 16.8267 17.3055 17C17.5055 17.16 17.6655 17.42 17.7855 17.78L21.3855 28.46H20.5855L24.3455 17.8C24.4788 17.44 24.6455 17.1733 24.8455 17C25.0455 16.8267 25.3055 16.74 25.6255 16.74C25.9455 16.74 26.1988 16.8267 26.3855 17C26.5722 17.1733 26.7322 17.4467 26.8655 17.82L30.5055 28.46H29.8055L33.4655 17.78C33.5855 17.4333 33.7455 17.1733 33.9455 17C34.1455 16.8267 34.4188 16.74 34.7655 16.74C35.1922 16.74 35.5055 16.8867 35.7055 17.18C35.9055 17.4733 35.9322 17.8333 35.7855 18.26L31.5655 30.1C31.4322 30.46 31.2588 30.7267 31.0455 30.9C30.8322 31.0733 30.5455 31.16 30.1855 31.16C29.8255 31.16 29.5388 31.0733 29.3255 30.9C29.1122 30.7267 28.9388 30.4533 28.8055 30.08L25.3255 20.16H25.7855L22.2655 30.1C22.1322 30.46 21.9588 30.7267 21.7455 30.9C21.5455 31.0733 21.2655 31.16 20.9055 31.16ZM39.5711 31C39.1311 31 38.7911 30.8867 38.5511 30.66C38.3245 30.42 38.2111 30.08 38.2111 29.64V18.26C38.2111 17.82 38.3245 17.4867 38.5511 17.26C38.7911 17.02 39.1311 16.9 39.5711 16.9H44.3711C45.3578 16.9 46.1978 17.0467 46.8911 17.34C47.5845 17.6333 48.1111 18.0533 48.4711 18.6C48.8445 19.1467 49.0311 19.8 49.0311 20.56C49.0311 21.4133 48.7845 22.1333 48.2911 22.72C47.7978 23.3067 47.1245 23.7 46.2711 23.9V23.6C47.2578 23.7467 48.0245 24.12 48.5711 24.72C49.1178 25.32 49.3911 26.1 49.3911 27.06C49.3911 28.3133 48.9645 29.2867 48.1111 29.98C47.2711 30.66 46.0978 31 44.5911 31H39.5711ZM40.6711 29.06H44.2711C45.1778 29.06 45.8445 28.8867 46.2711 28.54C46.6978 28.18 46.9111 27.6467 46.9111 26.94C46.9111 26.22 46.6978 25.6867 46.2711 25.34C45.8445 24.9933 45.1778 24.82 44.2711 24.82H40.6711V29.06ZM40.6711 22.88H43.9311C44.8111 22.88 45.4645 22.7133 45.8911 22.38C46.3311 22.0333 46.5511 21.5267 46.5511 20.86C46.5511 20.1933 46.3311 19.6933 45.8911 19.36C45.4645 19.0133 44.8111 18.84 43.9311 18.84H40.6711V22.88Z" fill="white"/>
</svg>
