<?xml version="1.0" encoding="utf-8"?>
<!-- Generator: Adobe Illustrator 27.5.0, SVG Export Plug-In . SVG Version: 6.00 Build 0)  -->
<svg version="1.1" xmlns="http://www.w3.org/2000/svg" xmlns:xlink="http://www.w3.org/1999/xlink" x="0px" y="0px"
	 viewBox="0 0 750 500" style="enable-background:new 0 0 750 500;" xml:space="preserve">
<g id="BACKGROUND">
</g>
<g id="OBJECTS">
	<g>
		<defs>
			<path id="SVGID_1_" d="M697.505,321.989c-0.622-0.46-1.407-0.759-1.905-1.376c-32.019-39.682,13.997-66.636,8.597-134.583
				C696.002,82.909,598.615,62.023,531.46,115.557c-17.68,14.094-25.583-9.264-40.979-5.497
				c-16.167-27.053-43.642-24.994-85.316-26.985c-25.522-1.219-42.251,4.379-54.25,13.59
				c-35.832-20.565-73.474-34.853-120.552-9.792c-25.061,13.34-41.83-20.119-47.599,2.454c-6.262-5.584-5.362,14.008-13.094,8.73
				c-60.022-40.969-129.324,51.609-113.729,124.29c1.104,5.143,2.654,9.941,4.613,14.417
				C0.71,294.284,30.625,427.549,138.314,424.765l7.726,0.025c5.515,0.662,11.354,0.951,17.529,0.808l90.308-0.455l404.839,1.323
				C715.914,425.586,741.665,354.614,697.505,321.989z"/>
		</defs>
		<clipPath id="SVGID_00000148655713683773580560000006161049464211859626_">
			<use xlink:href="#SVGID_1_"  style="overflow:visible;"/>
		</clipPath>
		
			<linearGradient id="SVGID_00000062885471337147899680000000528367268520211133_" gradientUnits="userSpaceOnUse" x1="4547.731" y1="303.729" x2="4306.5474" y2="82.3531" gradientTransform="matrix(-1 0 0 1 4713.7983 0)">
			<stop  offset="0" style="stop-color:#FFAD3D"/>
			<stop  offset="0.7455" style="stop-color:#FFD88A"/>
		</linearGradient>
		
			<path style="clip-path:url(#SVGID_00000148655713683773580560000006161049464211859626_);fill:url(#SVGID_00000062885471337147899680000000528367268520211133_);" d="
			M55.941,222.346c-15.595-72.681,53.493-134.079,113.515-93.11c48.91,33.384,62.628,79.404,114.045,55.577
			c51.417-23.827,30.691-106.085,121.665-101.738c81.557,3.896,76.39,112.816,132.759,103.546
			C675.61,163.978,94.584,402.442,55.941,222.346z"/>
		<g style="clip-path:url(#SVGID_00000148655713683773580560000006161049464211859626_);">
			<path style="fill:#CAE1FA;" d="M658.716,426.466c57.198-0.88,82.949-71.852,38.789-104.476c-0.622-0.46-1.407-0.759-1.905-1.376
				c-32.019-39.682,13.997-66.636,8.597-134.583c-8.195-103.121-105.582-124.007-172.737-70.474
				c-122.803,97.894-181.505-92.344-301.097-28.684c-63.802,33.962-25.013,129.923-87.678,124.559
				c-153.066-13.102-145.52,216.982-4.37,213.333L658.716,426.466z"/>
			<path style="opacity:0.58;fill:#BADAF7;" d="M608.377,423.355c48.89-0.666,70.879-52.11,33.125-77.487
				c-0.532-0.358-1.075-0.714-1.629-1.07c-46.174-29.67,2.248-51.841,7.307-104.629c6.839-71.362-74.13-131.816-147.667-54.843
				c-39.392,41.233-50.726,87.6-100.874,68.422c-50.148-19.178-94.666-68.525-158.127-51.615
				c-74.421,19.83-8.02,81.257-61.584,77.068C48.09,268.966,42.924,428.391,163.569,425.598L608.377,423.355z"/>
		</g>
		<g style="clip-path:url(#SVGID_00000148655713683773580560000006161049464211859626_);">
			<g>
				
					<linearGradient id="SVGID_00000018230835443662056560000008605725708496744841_" gradientUnits="userSpaceOnUse" x1="3908.521" y1="382.48" x2="3932.2227" y2="382.48" gradientTransform="matrix(-1 0 0 1 4036.197 0)">
					<stop  offset="0" style="stop-color:#ED7A62"/>
					<stop  offset="0.5917" style="stop-color:#FF8C62"/>
				</linearGradient>
				<path style="fill:url(#SVGID_00000018230835443662056560000008605725708496744841_);" d="M118.237,359.808
					c0,0-10.195,10.362-12.46,15.543c-2.265,5.181-1.753,17.292-1.753,17.292s7.618,12.943,11.192,12.497
					c0.847-0.106,2.041,0.011,1.604-3.438c-0.401-3.162-5.332-8.046-5.316-11.241c0.015-3.074,5.223-10.75,5.223-10.75
					s3.917,1.32,3.398,9.886c-0.313,5.184,5.286,2.591,6.041-1.295c0.755-3.885,1.51-18.621,1.51-18.621L118.237,359.808z"/>
				<g>
					
						<linearGradient id="SVGID_00000183244529969168910660000006530434257530836352_" gradientUnits="userSpaceOnUse" x1="197.7452" y1="181.6272" x2="205.5589" y2="181.6272">
						<stop  offset="0" style="stop-color:#032C63"/>
						<stop  offset="1" style="stop-color:#033D63"/>
					</linearGradient>
					<path style="fill:url(#SVGID_00000183244529969168910660000006530434257530836352_);" d="M204.881,172.349
						c0,0-5.266,10.347,0.678,18.556c0,0-5.944-0.229-7.678-5.956C196.596,180.707,204.881,172.349,204.881,172.349z"/>
					
						<linearGradient id="SVGID_00000108989317011679716690000012902869495114693293_" gradientUnits="userSpaceOnUse" x1="139.0855" y1="209.3584" x2="139.0855" y2="371.5829">
						<stop  offset="0" style="stop-color:#F4454B"/>
						<stop  offset="1" style="stop-color:#ED7A62"/>
					</linearGradient>
					<path style="fill:url(#SVGID_00000108989317011679716690000012902869495114693293_);" d="M159.794,227.63l7.22-22.49
						c-21.848-0.007-37.087,11.05-46.398,75.472c-1.152,7.969-9.458,83.766-9.458,83.766l23.312,13.882
						c0,0,0.086-45.845,10.784-66.494c5.314-10.258-8.334-45.403,0-62.479C153.587,232.21,159.794,227.63,159.794,227.63z"/>
					<polygon style="opacity:0.55;fill:#DB5642;" points="145.253,249.286 134.47,377.188 118.232,367.519 					"/>
					
						<linearGradient id="SVGID_00000136412570065493348640000010925815656622207161_" gradientUnits="userSpaceOnUse" x1="169.1339" y1="125.4064" x2="175.4082" y2="196.3341">
						<stop  offset="0" style="stop-color:#032C63"/>
						<stop  offset="1" style="stop-color:#033D63"/>
					</linearGradient>
					<path style="fill:url(#SVGID_00000136412570065493348640000010925815656622207161_);" d="M187.199,134.883
						c0,0-30.842,3.145-33.133,13.433c0,0-3.996-15.38,13.554-22.74C181.291,119.843,187.199,134.883,187.199,134.883z"/>
					
						<linearGradient id="SVGID_00000101823930268088422690000015815905701239388576_" gradientUnits="userSpaceOnUse" x1="188.6054" y1="219.2417" x2="189.6413" y2="180.5688">
						<stop  offset="0" style="stop-color:#ED7A62"/>
						<stop  offset="1" style="stop-color:#FF8C62"/>
					</linearGradient>
					<path style="fill:url(#SVGID_00000101823930268088422690000015815905701239388576_);" d="M201.972,156.121
						c0,0-2.167,31.287-1.324,36.273c1.324,7.827,1.119,17.398,7.558,16.891c6.439-0.507-10.092,10.461-10.092,10.461l-28.61,2.734
						l-1.419-14.939c0,0-0.068-2.498,1.404-8.313c1.472-5.814,2.16-26.082,2.16-26.082l18.672-13.127"/>
					
						<linearGradient id="SVGID_00000116937065343037944760000017467288358275342464_" gradientUnits="userSpaceOnUse" x1="188.1032" y1="170.1019" x2="199.1527" y2="211.8824">
						<stop  offset="0" style="stop-color:#ED7A62"/>
						<stop  offset="1" style="stop-color:#FF8C62;stop-opacity:0"/>
					</linearGradient>
					<path style="fill:url(#SVGID_00000116937065343037944760000017467288358275342464_);" d="M213.562,209.286
						c-11.59,3.551-11.59-9.064-12.914-16.891c-0.843-4.986,1.324-36.273,1.324-36.273l-11.652,3.898l-18.672,13.127
						c0,0,7.396,17.134,6.191,24.569c11.434,6.941,17.902,17.727,34.481,13.049C214.675,209.183,215.648,208.646,213.562,209.286z"
						/>
					
						<linearGradient id="SVGID_00000042705409451914957900000014448819196020340888_" gradientUnits="userSpaceOnUse" x1="106.2578" y1="419.1708" x2="191.3037" y2="419.1708">
						<stop  offset="0" style="stop-color:#032C63"/>
						<stop  offset="1" style="stop-color:#033D63"/>
					</linearGradient>
					<path style="fill:url(#SVGID_00000042705409451914957900000014448819196020340888_);" d="M191.304,380.743l-37.301,82.746
						l6.096,44.081c0.411,2.973,0.51,5.981,0.297,8.975l-54.138-47.026l25.365-137.267l17.158-10.455l33.01,2.477L191.304,380.743z"
						/>
					
						<linearGradient id="SVGID_00000049223350925287306280000007404914123085731510_" gradientUnits="userSpaceOnUse" x1="176.6257" y1="339.2212" x2="119.8835" y2="497.081">
						<stop  offset="0.0033" style="stop-color:#009FDA"/>
						<stop  offset="1" style="stop-color:#85D5DC"/>
					</linearGradient>
					<path style="fill:url(#SVGID_00000049223350925287306280000007404914123085731510_);" d="M191.304,380.743l-37.301,82.746
						l6.096,44.081c0.411,2.973,0.51,5.981,0.297,8.975l-54.138-47.026l25.365-137.267l17.158-10.455l33.01,2.477L191.304,380.743z"
						/>
					<path style="opacity:0.22;fill:#513227;" d="M160.396,516.545c0.214-2.994,0.114-6.001-0.297-8.974l-6.096-44.081
						l28.411-63.026l-14.983-21.278l-33.22,84.304c0,0,8.338,40.663,11.042,53.836C147.739,529.437,160.396,516.545,160.396,516.545
						z"/>
					
						<linearGradient id="SVGID_00000064342122038684776410000015657095083722197932_" gradientUnits="userSpaceOnUse" x1="208.5267" y1="321.3121" x2="178.7007" y2="491.5387">
						<stop  offset="0.0033" style="stop-color:#009FDA"/>
						<stop  offset="1" style="stop-color:#85D5DC"/>
					</linearGradient>
					<path style="fill:url(#SVGID_00000064342122038684776410000015657095083722197932_);" d="M215.922,317.332
						c0,0,13.975,39.809,14.92,53.713c1.876,27.605-14.92,109.664-14.92,109.664l-47.158,5.222l-1.333-113.394l4.476-46.253
						L215.922,317.332z"/>
					<path style="opacity:0.22;fill:#513227;" d="M209.458,412.321c-2.802,32.074-8.318,67.126-8.318,67.126l14.783,1.262
						c0,0,16.797-82.059,14.921-109.664c-0.945-13.905-14.921-53.713-14.921-53.713l-22.111,4.497
						c4.66,11.084,15.013,36.516,16.521,47.159C211.691,378.587,210.969,395.021,209.458,412.321"/>
					
						<linearGradient id="SVGID_00000090992178476829754010000012652808618504506758_" gradientUnits="userSpaceOnUse" x1="184.1572" y1="209.3585" x2="184.1572" y2="371.5834">
						<stop  offset="0" style="stop-color:#F4454B"/>
						<stop  offset="1" style="stop-color:#ED7A62"/>
					</linearGradient>
					<path style="fill:url(#SVGID_00000090992178476829754010000012652808618504506758_);" d="M202.157,203.479
						c0,0,15.431,0.108,29.647,8.725c8.665,5.252,9.504,10.417,8.501,16.668l-13.544,135.233c0,0-6.964-0.51-33.749-1.419
						c-58.037-1.968-65.336-7.149-65.336-7.149l10.367-111.204c0.261-19.03,7.318-36.177,26.117-39.144h3.739
						c0,0,0.185,5.078,6.384,7.698C181.783,216.059,193.298,217.837,202.157,203.479z"/>
					<polygon style="opacity:0.55;fill:#DB5642;" points="225.922,326.698 232.721,299.114 196.829,362.153 201.972,363.082 					
						"/>
					
						<linearGradient id="SVGID_00000025413630275854385470000009340389300230635958_" gradientUnits="userSpaceOnUse" x1="177.7525" y1="197.2812" x2="179.1337" y2="130.9849">
						<stop  offset="0" style="stop-color:#ED7A62"/>
						<stop  offset="0.5917" style="stop-color:#FF8C62"/>
					</linearGradient>
					<path style="fill:url(#SVGID_00000025413630275854385470000009340389300230635958_);" d="M154.3,167.58
						c-0.044,0.496-0.073,0.994-0.081,1.493c-0.141,8.792,4.487,15.96,9.688,22.544c13.408,16.975,38.065-4.613,39.36-26.502
						c1.305-22.056-10.04-32.716-25.321-34.129c-9.478-0.876-20.506,1.463-23.88,17.329c-0.722,3.396,0.505,6.751,0.579,10.144
						C154.712,161.537,154.57,164.531,154.3,167.58z"/>
					
						<linearGradient id="SVGID_00000091723922318923194230000013459164612539418251_" gradientUnits="userSpaceOnUse" x1="177.9581" y1="106.793" x2="185.9415" y2="197.041">
						<stop  offset="0" style="stop-color:#032C63"/>
						<stop  offset="1" style="stop-color:#033D63"/>
					</linearGradient>
					<path style="fill:url(#SVGID_00000091723922318923194230000013459164612539418251_);" d="M206.266,129.985
						c-0.546-0.674-1.127-1.322-1.761-1.928c-1.105-1.055-2.258-2.019-3.456-2.899c-0.558-0.42-0.896-0.641-0.896-0.641l0.004,0.021
						c-7.772-5.316-17.564-6.993-30.608-3.934c-6.934,1.626-20.556,3.144-20.556,3.144c1.722,4.277,13.173,6.32,13.173,6.32
						c-2.79,1.047-15.305,0.35-15.305,0.35c4.7,4.837,10.601,4.679,10.601,4.679c-2.761,1.276-10.601-0.499-10.601-0.499
						c15.294,13.503,28.481,6.164,37.887,6.12c5.579,1.451,9.523,4.438,11.79,8.083c0.96,1.905,1.652,3.972,2.157,6.047
						c0.308,2.444,0.025,4.954-0.905,7.346c-5.346,13.746,10.22,25.241,10.22,25.241c-0.871-6.362,0.019-9.354,3.754-17.872
						C220.19,150.344,212.511,136.923,206.266,129.985z"/>
					
						<linearGradient id="SVGID_00000181795080778598335320000001705703723326767778_" gradientUnits="userSpaceOnUse" x1="199.3881" y1="197.732" x2="200.7693" y2="131.4355">
						<stop  offset="0" style="stop-color:#ED7A62"/>
						<stop  offset="0.5917" style="stop-color:#FF8C62"/>
					</linearGradient>
					<path style="fill:url(#SVGID_00000181795080778598335320000001705703723326767778_);" d="M194.887,160.296
						c0,0,5.048-7.255,8.92-3.245c3.871,4.009,0.626,14.927-8.156,13.191"/>
					
						<linearGradient id="SVGID_00000090273928506588419670000006557381636817299080_" gradientUnits="userSpaceOnUse" x1="195.4939" y1="367.1332" x2="223.4166" y2="367.1332">
						<stop  offset="0" style="stop-color:#ED7A62"/>
						<stop  offset="0.5917" style="stop-color:#FF8C62"/>
					</linearGradient>
					<path style="fill:url(#SVGID_00000090273928506588419670000006557381636817299080_);" d="M211.703,358.105
						c0,0-12.019,5.999-16.209,14.318c0,0,14.609,2.893,25.632,3.737l2.291-7.883L211.703,358.105z"/>
					<path style="opacity:0.55;fill:#DB5642;" d="M230.749,286.939l-12.819-36.017l0,0c-4.368,1.417-6.736,6.128-5.268,10.479
						l16.569,39.557L230.749,286.939z"/>
					
						<linearGradient id="SVGID_00000036931034579549725470000009805278718361342886_" gradientUnits="userSpaceOnUse" x1="231.4753" y1="209.3584" x2="231.4753" y2="371.5831">
						<stop  offset="0" style="stop-color:#F4454B"/>
						<stop  offset="1" style="stop-color:#ED7A62"/>
					</linearGradient>
					<path style="fill:url(#SVGID_00000036931034579549725470000009805278718361342886_);" d="M207.099,212.837l25.46-0.23
						c0,0,13.333,7.69,17.063,27.832c3.73,20.142,14.54,54.972,10.444,74.485c-3.503,16.688-36.65,63.528-36.65,63.528
						l-21.444-15.371l28.412-59.231l-17.615-61.149L207.099,212.837z"/>
					<g style="opacity:0.45;">
						
							<linearGradient id="SVGID_00000096021282609218243200000002278360948623570103_" gradientUnits="userSpaceOnUse" x1="189.5764" y1="105.7653" x2="197.5598" y2="196.0132">
							<stop  offset="0" style="stop-color:#032C63"/>
							<stop  offset="1" style="stop-color:#033D63"/>
						</linearGradient>
						<path style="fill:url(#SVGID_00000096021282609218243200000002278360948623570103_);" d="M206.266,129.985
							c-0.546-0.674-1.127-1.322-1.761-1.928c-1.105-1.055-2.258-2.019-3.456-2.899c-0.558-0.42-0.896-0.641-0.896-0.641
							l0.004,0.021c-7.772-5.316-17.564-6.993-30.608-3.934c-0.161,0.038-0.329,0.075-0.498,0.113
							c11.133-1.596,19.861,0.452,26.997,5.42l-0.004-0.023c0,0,0.363,0.242,0.962,0.701c1.287,0.962,2.525,2.016,3.711,3.169
							c0.681,0.662,1.306,1.37,1.892,2.107c6.707,7.585,14.953,22.258,5.904,43.269c-1.714,3.979-2.866,6.852-3.555,9.383
							c1.734,1.715,3.051,2.691,3.051,2.691c-0.871-6.362,0.019-9.354,3.754-17.872C220.19,150.344,212.511,136.923,206.266,129.985
							z"/>
					</g>
				</g>
			</g>
			<g>
				
					<linearGradient id="SVGID_00000064335872081377153440000017303362972176734375_" gradientUnits="userSpaceOnUse" x1="626.7967" y1="200.3025" x2="625.9368" y2="394.663">
					<stop  offset="0" style="stop-color:#006BDA"/>
					<stop  offset="0.9967" style="stop-color:#009FDA"/>
				</linearGradient>
				<path style="fill:url(#SVGID_00000064335872081377153440000017303362972176734375_);" d="M606.262,208.738l-10.002-15.585
					c0,0,21.22-1.206,33.438,18.918s22.247,69.717,22.247,69.717s14.942,50.309-7.419,91.672l-17.951-29.579
					c0,0-19.003-27.594-21.878-30.469C601.822,310.536,606.262,208.738,606.262,208.738z"/>
				
					<linearGradient id="SVGID_00000057145780451819886510000005945351464694268845_" gradientUnits="userSpaceOnUse" x1="614.4656" y1="165.8726" x2="616.0358" y2="119.03">
					<stop  offset="0" style="stop-color:#032C63"/>
					<stop  offset="1" style="stop-color:#033D63"/>
				</linearGradient>
				<path style="fill:url(#SVGID_00000057145780451819886510000005945351464694268845_);" d="M622.319,131.753
					c0,0,3.439,9.934,3.007,16.838c-0.431,6.904,0.068,17.138-4.18,20.394S603.732,140,605.191,138.501
					C606.651,137.001,622.319,131.753,622.319,131.753z"/>
				<path style="fill:#FFFFFF;" d="M651.003,434.226h-41.419l-8.803-41.942l-7.314,41.942h-51.116
					c-3.219-15.656-6.893-36.567-7.489-52.836c-0.781-21.31,12.542-35.546,12.542-35.546h91.277c0,0,13.278,37.03,12.316,84.76
					L651.003,434.226z"/>
				<g style="opacity:0.12;">
					<path style="fill:#006E58;" d="M547.405,345.843h21.953c-4.233,5.134-11.623,16.188-12.176,31.33
						c-0.593,16.27,1.545,42.074,3.613,57.923l-18.443-0.871c-3.219-15.656-6.893-36.567-7.489-52.836
						C534.082,360.08,547.405,345.843,547.405,345.843z"/>
				</g>
				
					<linearGradient id="SVGID_00000103985348234236083860000017095966291181480576_" gradientUnits="userSpaceOnUse" x1="567.9342" y1="193.7323" x2="622.336" y2="193.7323">
					<stop  offset="0" style="stop-color:#ED7A62"/>
					<stop  offset="0.5917" style="stop-color:#FF8C62"/>
				</linearGradient>
				<path style="fill:url(#SVGID_00000103985348234236083860000017095966291181480576_);" d="M606.005,177.081
					c0,0,0.724,23.385,12.639,26.006c11.914,2.621-8.821,17.873-8.821,17.873l-29.496,5.91l-12.394-19.838
					c0,0,11.406-4.348,4.019-41.075C568.584,149.199,606.005,177.081,606.005,177.081z"/>
				
					<linearGradient id="SVGID_00000157281194848554031790000010083610552429585065_" gradientUnits="userSpaceOnUse" x1="641.011" y1="321.7402" x2="636.4758" y2="528.1014">
					<stop  offset="0" style="stop-color:#006BDA"/>
					<stop  offset="0.9967" style="stop-color:#009FDA"/>
				</linearGradient>
				<path style="fill:url(#SVGID_00000157281194848554031790000010083610552429585065_);" d="M634.654,246.5
					c0,0,15.846,53.852,16.395,74.888c0.303,11.628-6.465,46.077-6.465,46.077l-13.706-42.652L634.654,246.5z"/>
				<path style="fill:#FFFFFF;" d="M591.181,207.672l5.995-3.114c0,0,1.983,0.853,7.903-1.674c5.92-2.527,3.925,10.773,3.925,10.773
					l0.819,7.752c0,0-9.199,0.171-10.396,0c-1.197-0.171-6.993-0.551-6.993-0.551L591.181,207.672z"/>
				<path style="fill:#EDEDED;" d="M591.181,207.672l5.995-3.114c0,0,1.983,0.853,7.903-1.674c5.92-2.527,3.925,10.773,3.925,10.773
					l0.819,7.752c0,0-9.199,0.171-10.396,0c-1.197-0.171-6.993-0.551-6.993-0.551L591.181,207.672z"/>
				<path style="opacity:0.62;fill:#FCB29A;" d="M600.644,187.368l5.414,2.776l1.998-0.337l0.191,0.954c0,0,7.378,8.61-5.458,9.105
					c-4.547,0.175-23.505-9.148-26.447-21.867c-2.434-10.52-1.741-19.108-1.741-19.108L600.644,187.368z"/>
				
					<linearGradient id="SVGID_00000134936003173542496530000007994894670226402709_" gradientUnits="userSpaceOnUse" x1="575.0538" y1="159.4494" x2="625.3265" y2="159.4494">
					<stop  offset="0" style="stop-color:#ED7A62"/>
					<stop  offset="0.5917" style="stop-color:#FF8C62"/>
				</linearGradient>
				<path style="fill:url(#SVGID_00000134936003173542496530000007994894670226402709_);" d="M624.545,159.089
					c0.131,0.489,0.247,0.982,0.342,1.482c1.677,8.782-1.706,16.77-5.766,24.273c-10.466,19.346-43.708,3.428-44.055-19.671
					c-0.286-19.014,4.342-34.524,19.401-38.608c9.341-2.533,20.795-2.117,26.947,13.186c1.317,3.276,0.673,6.851,1.192,10.262
					C623.077,153.108,623.742,156.082,624.545,159.089z"/>
				
					<linearGradient id="SVGID_00000118355857543610512000000007755993459956739211_" gradientUnits="userSpaceOnUse" x1="589.8793" y1="203.3492" x2="589.1516" y2="367.8459">
					<stop  offset="0" style="stop-color:#006BDA"/>
					<stop  offset="0.9967" style="stop-color:#009FDA"/>
				</linearGradient>
				<path style="fill:url(#SVGID_00000118355857543610512000000007755993459956739211_);" d="M596.741,215.292
					c12.534,2.122,20.93-2.847,14.51-16.725c-0.805-1.739,10.414,2.051,11.068,3.852c5.62,15.481,18.519,68.188,18.519,84.928
					c0,19.063,10.438,65.54-3.537,70.751c-0.635,0.237-1.318,0.319-1.996,0.32c-4.583,0.009-25.762,0.01-28.151-0.686
					c-2.681-0.782-8.847,5.387-21.796,0.348c-12.95-5.04-36.751,5.466-43.789-0.399c-7.039-5.865-10.609-52.601-3.962-62.641
					c6.648-10.039,8.991-95.915,8.991-95.915s8.319-5.393,26.11-3.124C577.786,196.649,576.457,211.857,596.741,215.292z"/>
				
					<linearGradient id="SVGID_00000072998252204946649500000004582640172817113270_" gradientUnits="userSpaceOnUse" x1="560.6465" y1="291.3261" x2="557.3732" y2="440.2671">
					<stop  offset="0" style="stop-color:#006BDA"/>
					<stop  offset="0.9967" style="stop-color:#009FDA"/>
				</linearGradient>
				<path style="fill:url(#SVGID_00000072998252204946649500000004582640172817113270_);" d="M536.402,322.918l-1.602,17.692
					c0,0,24.574,18.036,42.184,15.806c17.61-2.231-3.047-19.766-3.047-19.766L536.402,322.918z"/>
				
					<linearGradient id="SVGID_00000002376140649857948220000011067074072949550766_" gradientUnits="userSpaceOnUse" x1="563.9263" y1="353.5468" x2="610.0162" y2="353.5468">
					<stop  offset="0" style="stop-color:#ED7A62"/>
					<stop  offset="0.5917" style="stop-color:#FF8C62"/>
				</linearGradient>
				<path style="fill:url(#SVGID_00000002376140649857948220000011067074072949550766_);" d="M609.876,369.963
					c0.73-1.567-1.383-2.553-6.742-5.078c-0.2-0.094-1.145-1.289-1.368-1.397c-0.834-0.493,6.698,3.308,7.557,1.915
					c1.141-1.848-0.297-2.966-7.073-6.222c-4.367-2.098-8.557-3.792-8.877-5.467c-0.823-4.313,11.252-2.368,6.798-5.076
					c-1.485-0.903-5.435-2.458-7.502-3.124c-3.946-1.273-3.347-1.343-10.929-1.959c-11.908-0.969-19.823-20.553-17.371-6.246
					c0.82,4.789,1.985,9.807,4.947,14.515c5.886,9.358,15.721,17.534,22.007,20.552c0.406,0.195,0.804,0.398,1.197,0.591
					c3.131,1.713,6.172,2.484,6.793,1.759c0.947-1.104-2.77-3.406-5.704-4.762c-0.841-0.389,9.716,4.418,10.787,3.194
					c1.138-1.302-3.587-3.785-7.058-5.43C596.375,367.27,608.766,372.346,609.876,369.963z"/>
				
					<linearGradient id="SVGID_00000067955191367264639900000017152759931189474738_" gradientUnits="userSpaceOnUse" x1="547.6061" y1="203.1622" x2="546.8787" y2="367.5693">
					<stop  offset="0" style="stop-color:#006BDA"/>
					<stop  offset="0.9967" style="stop-color:#009FDA"/>
				</linearGradient>
				<path style="fill:url(#SVGID_00000067955191367264639900000017152759931189474738_);" d="M572.344,213.609
					c0.659-8.388-5.329-15.998-13.686-16.97c-0.275-0.032-1.38-0.283-1.664-0.303c-10.24-0.714-16.199,7.669-22.401,15.543
					c-7.118,9.037-24.761,50.121-25.98,82.905c-0.088,2.354,0.463,4.683,1.549,6.773c5.568,10.709,25.349,44.621,56.564,53.476
					c0,0,16.975-8.212,18.885-18.378c0,0-33.732-41.614-43.484-48.213C542.126,288.441,570.026,243.113,572.344,213.609z"/>
				<path style="fill:#EA9883;" d="M567.934,172.444"/>
				
					<linearGradient id="SVGID_00000176757480505393462560000003712325048752869044_" gradientUnits="userSpaceOnUse" x1="558.9169" y1="291.2881" x2="555.6437" y2="440.2286">
					<stop  offset="0" style="stop-color:#006BDA"/>
					<stop  offset="0.9967" style="stop-color:#009FDA"/>
				</linearGradient>
				<polygon style="fill:url(#SVGID_00000176757480505393462560000003712325048752869044_);" points="565.321,247.684 
					542.126,288.441 575.054,323.889 552.516,288.285 				"/>
				
					<linearGradient id="SVGID_00000094599175769525340820000015015962953188488626_" gradientUnits="userSpaceOnUse" x1="601.5969" y1="165.4412" x2="603.167" y2="118.5987">
					<stop  offset="0" style="stop-color:#032C63"/>
					<stop  offset="1" style="stop-color:#033D63"/>
				</linearGradient>
				<path style="fill:url(#SVGID_00000094599175769525340820000015015962953188488626_);" d="M587.906,140
					c0,0,35.989,4.249,47.446-12.05l-10.455,1.673c0,0,8.458-1.978,11.697-12.412c0,0-6.734,4.498-14.867,4.719l4.388-7.07
					c0,0-6.645,5.694-15.279,5.279c0,0,2.743-2.449,3.841-6.223c0,0-7.026,7.325-16.544,4.629
					c-6.308-1.786-23.078,0.461-28.466,12.136C566.443,137.665,587.906,140,587.906,140z"/>
				
					<linearGradient id="SVGID_00000160889263955348213030000005621294058717535628_" gradientUnits="userSpaceOnUse" x1="580.1721" y1="164.7231" x2="581.7422" y2="117.8805">
					<stop  offset="0" style="stop-color:#032C63"/>
					<stop  offset="1" style="stop-color:#033D63"/>
				</linearGradient>
				<path style="fill:url(#SVGID_00000160889263955348213030000005621294058717535628_);" d="M596.741,134.502l3.449-12.368
					c0,0-26.641-6.063-34.505,11.368c-11.706,25.947,8.826,53.484,8.826,53.484s9.483-9.628,4.523-22.622
					C576.084,156.633,588.156,155.299,596.741,134.502z"/>
				
					<linearGradient id="SVGID_00000096774216948313386630000006072950864463273399_" gradientUnits="userSpaceOnUse" x1="572.8022" y1="157.3556" x2="585.0305" y2="157.3556">
					<stop  offset="0" style="stop-color:#ED7A62"/>
					<stop  offset="0.5917" style="stop-color:#FF8C62"/>
				</linearGradient>
				<path style="fill:url(#SVGID_00000096774216948313386630000006072950864463273399_);" d="M584.771,154.066
					c-0.691-3.448-8.217-8.356-11.373-0.352c-2.544,6.452,3.383,14.562,11.633,10.533"/>
				<path style="fill:#FFFFFF;" d="M574.26,187.241c0,0,10.77,15.323,26.117,17.239l-10.75,17.731l-21.777-26.993L574.26,187.241z"
					/>
				<path style="fill:#FFFFFF;" d="M606.664,200.139c-1.31,1.391-6.287,4.341-6.287,4.341l11.366,14.985l3.478-21.962l-4.864-3.771
					C610.358,193.732,610.287,196.293,606.664,200.139z"/>
				<g style="opacity:0.36;">
					
						<linearGradient id="SVGID_00000043433156799071379630000015060875828540396449_" gradientUnits="userSpaceOnUse" x1="562.0779" y1="152.4935" x2="602.7342" y2="152.4935">
						<stop  offset="0" style="stop-color:#032C63"/>
						<stop  offset="1" style="stop-color:#033D63"/>
					</linearGradient>
					<path style="fill:url(#SVGID_00000043433156799071379630000015060875828540396449_);" d="M568.229,137.45
						c6.095-15.679,24.363-18.552,29.422-18.021c1.844,0.194,3.541,0.055,5.083-0.297c-1.448,0.035-2.988-0.129-4.602-0.586
						c-4.894-1.386-16.085-0.34-23.373,5.65c-3.755,1.877-7.043,4.803-9.075,9.306c-11.706,25.947,8.826,53.484,8.826,53.484
						s3.649-3.686,5.114-9.198C572.056,168.226,562.977,150.961,568.229,137.45z"/>
				</g>
			</g>
			<g>
				
					<linearGradient id="SVGID_00000046298656344458416410000007386448354841238456_" gradientUnits="userSpaceOnUse" x1="338.6814" y1="198.006" x2="367.0525" y2="109.6191">
					<stop  offset="0" style="stop-color:#032C63"/>
					<stop  offset="1" style="stop-color:#033D63"/>
				</linearGradient>
				<path style="fill:url(#SVGID_00000046298656344458416410000007386448354841238456_);" d="M385.62,128.883
					c0,0-5.276-19.369-22.696-18.028c-14.76,1.136-14.733,11.986-26.025,14.949c-10.835,2.843-13.35,13.675-9.528,25.076
					c3.822,11.401-2.478,7.148-5.85,15.701c-3.372,8.552-1.914,15.195,5.119,20.908c7.033,5.713-5.505,11.684-8.73,23.499
					c-5.543,20.305,11.772,27.52,11.772,27.52l19.145-9.386l14.144-6.387l11.282-99.29L385.62,128.883z"/>
				
					<linearGradient id="SVGID_00000145781388874630975210000014250673838510538165_" gradientUnits="userSpaceOnUse" x1="381.4915" y1="211.7475" x2="409.8627" y2="123.3606">
					<stop  offset="0" style="stop-color:#032C63"/>
					<stop  offset="1" style="stop-color:#033D63"/>
				</linearGradient>
				<path style="fill:url(#SVGID_00000145781388874630975210000014250673838510538165_);" d="M366.371,122.012
					c0,0,14.157-7.972,23.366-0.727c7.873,6.194,2.058,12.064,10.202,18.617c10.332,8.314,11.976,16.592,9.739,24.63
					c-2.28,8.191-4.773,9.257-1.582,16.535c3.191,7.278,22.952,12.976,15.985,34.838c-3.51,11.017-28.922,6.608-28.922,6.608
					L366.371,122.012z"/>
				
					<linearGradient id="SVGID_00000132786098357197572040000004711998314278772909_" gradientUnits="userSpaceOnUse" x1="346.1763" y1="181.2977" x2="306.1657" y2="381.3509">
					<stop  offset="0" style="stop-color:#F4454B"/>
					<stop  offset="1" style="stop-color:#ED7A62"/>
				</linearGradient>
				<path style="fill:url(#SVGID_00000132786098357197572040000004711998314278772909_);" d="M350.372,195.995h-9.219
					c0,0-16.922,3.386-28.675,14.212c-11.753,10.826-20.127,86.948-20.127,86.948s12.555,49.416,37.704,63.351
					c25.149,13.934,14.371-55.827,14.371-55.827L350.372,195.995z"/>
				<polygon style="fill:#FA9900;" points="336.167,279.369 319.688,248.149 312.696,291.315 314.412,343.431 				"/>
				
					<linearGradient id="SVGID_00000094613142835596250470000002221695243764819391_" gradientUnits="userSpaceOnUse" x1="331.0257" y1="174.7967" x2="412.5101" y2="174.7967">
					<stop  offset="0" style="stop-color:#032C63"/>
					<stop  offset="1" style="stop-color:#033D63"/>
				</linearGradient>
				<path style="opacity:0.38;fill:url(#SVGID_00000094613142835596250470000002221695243764819391_);" d="M383.738,159.97
					l6.751-12.967c0,0,10.024,10.595,3.742,26.132c-3.805,9.41,19.49,11.098,18.229,28.246c-1.55,21.078-56.988,6.986-56.988,6.986
					s-10.075,8.432-17.878,2.356c-18.433-14.354,8.301-21.049,3.393-39.01c-4.245-15.537-6.438-23.923,8.496-35.098"/>
				
					<linearGradient id="SVGID_00000063607186219727620610000011616128563705624745_" gradientUnits="userSpaceOnUse" x1="431.3432" y1="198.3309" x2="391.3329" y2="398.383">
					<stop  offset="0" style="stop-color:#F4454B"/>
					<stop  offset="1" style="stop-color:#ED7A62"/>
				</linearGradient>
				<path style="fill:url(#SVGID_00000063607186219727620610000011616128563705624745_);" d="M392.902,194.904h9.219
					c0,0,16.922,3.386,28.675,14.212c11.753,10.826,20.127,86.947,20.127,86.947s-12.555,49.416-37.704,63.351
					c-25.149,13.935-14.371-55.827-14.371-55.827L392.902,194.904z"/>
				<polygon style="fill:#FA9900;" points="407.108,278.277 423.587,247.057 430.579,290.224 428.862,342.34 				"/>
				
					<linearGradient id="SVGID_00000022536313758737433340000012904303298141401735_" gradientUnits="userSpaceOnUse" x1="365.5661" y1="185.1756" x2="325.5558" y2="385.228">
					<stop  offset="0" style="stop-color:#F4454B"/>
					<stop  offset="1" style="stop-color:#ED7A62"/>
				</linearGradient>
				<path style="fill:url(#SVGID_00000022536313758737433340000012904303298141401735_);" d="M330.732,205.408l-7.005-3.536
					c0,0,4.773-17.407,31.375-21.045c30.996-4.24,38.105,1.131,47.02,14.077"/>
				
					<linearGradient id="SVGID_00000093866332321320998740000002387672552023894970_" gradientUnits="userSpaceOnUse" x1="364.9187" y1="207.6513" x2="370.0981" y2="177.6108">
					<stop  offset="0" style="stop-color:#ED7A62"/>
					<stop  offset="0.5917" style="stop-color:#FF8C62"/>
				</linearGradient>
				<path style="fill:url(#SVGID_00000093866332321320998740000002387672552023894970_);" d="M354.398,177.035l-1.982-1.704
					l-0.16,12.419c-0.033,2.555-1.615,4.833-3.998,5.755l-9.068,3.51c0,0,14.205,12.241,28.084,10.849
					c13.879-1.392,26.792-9.416,26.792-9.416l-6.958-2.892c-2.249-0.935-3.75-3.089-3.85-5.523l-0.69-16.898L354.398,177.035z"/>
				
					<linearGradient id="SVGID_00000128486894723331850660000017993099293751210625_" gradientUnits="userSpaceOnUse" x1="352.3134" y1="185.6512" x2="384.3367" y2="185.6512">
					<stop  offset="0" style="stop-color:#ED7A62"/>
					<stop  offset="1" style="stop-color:#FF8C62;stop-opacity:0"/>
				</linearGradient>
				<path style="fill:url(#SVGID_00000128486894723331850660000017993099293751210625_);" d="M354.398,177.035l-2.085,6.318
					c0,0,7.171,10.368,18.184,11.364s13.839-1.428,13.839-1.428s-1.394-2.847-1.376-16.942L354.398,177.035z"/>
				
					<linearGradient id="SVGID_00000084505023995504588970000009666002944210558100_" gradientUnits="userSpaceOnUse" x1="363.5229" y1="189.6233" x2="367.3212" y2="138.1746">
					<stop  offset="0" style="stop-color:#ED7A62"/>
					<stop  offset="0.5917" style="stop-color:#FF8C62"/>
				</linearGradient>
				<path style="fill:url(#SVGID_00000084505023995504588970000009666002944210558100_);" d="M342.906,149.029
					c1.352-14.332,9.3-26.584,26.201-25.224c25.987,2.091,24.65,45.537,10.747,58.903c-8.43,8.105-22.488,7.035-28.614-1.039
					C345.006,173.452,341.818,160.567,342.906,149.029z"/>
				
					<linearGradient id="SVGID_00000124129169305268414920000008805616926040260743_" gradientUnits="userSpaceOnUse" x1="376.5416" y1="144.6701" x2="380.179" y2="184.8625">
					<stop  offset="0" style="stop-color:#ED7A62"/>
					<stop  offset="1" style="stop-color:#FF8C62;stop-opacity:0"/>
				</linearGradient>
				<path style="opacity:0.37;fill:url(#SVGID_00000124129169305268414920000008805616926040260743_);" d="M388.307,147.003
					c-1.201-5.616-2.281-11.071-5.158-15.328l-13.457,6.414c0,0-2.176,12.558-1.812,16.755c0.444,5.125,3.963,12.082,3.963,12.082
					l-2.257,1.401c0,0,1.115,14.89-1.011,19.937c4.631-0.659,11.637-4.94,13.942-8.773
					C388.299,169.872,390.999,159.591,388.307,147.003z"/>
				
					<linearGradient id="SVGID_00000126309785174674544870000013700762068959513021_" gradientUnits="userSpaceOnUse" x1="340.5836" y1="198.6166" x2="368.9547" y2="110.2296">
					<stop  offset="0" style="stop-color:#032C63"/>
					<stop  offset="1" style="stop-color:#033D63"/>
				</linearGradient>
				<path style="fill:url(#SVGID_00000126309785174674544870000013700762068959513021_);" d="M384.383,120.412
					c0,0,3.164,13.244-7.115,17.535c-10.297,4.298-18.276-1.334-18.276-1.334s-1.918,10.743-13.884,12.971
					c-9.596,1.787-2.412,13.229-2.412,13.229s-5.695-11.839-5.416-19.803s10.851-18.152,10.851-18.152l8.943-5.557l18.242-2.037
					L384.383,120.412z"/>
				
					<linearGradient id="SVGID_00000008852734908193105770000006562553141032114565_" gradientUnits="userSpaceOnUse" x1="363.3678" y1="205.9301" x2="391.739" y2="117.543">
					<stop  offset="0" style="stop-color:#032C63"/>
					<stop  offset="1" style="stop-color:#033D63"/>
				</linearGradient>
				<path style="fill:url(#SVGID_00000008852734908193105770000006562553141032114565_);" d="M375.317,126.895
					c0,0-1.944,9.258,3.28,9.719c8.22,0.725,6.075,5.018,7.023,8.248c1.927,6.567,7.282,10.867,7.282,10.867l1.165-14.161
					l-2.685-12.82l-5.041-5.046l-8.865-1.067L375.317,126.895z"/>
				<g>
					
						<linearGradient id="SVGID_00000106838858261778531350000003132852282913420444_" gradientUnits="userSpaceOnUse" x1="367.0081" y1="354.6318" x2="370.2819" y2="475.7592">
						<stop  offset="0" style="stop-color:#FFAD3D"/>
						<stop  offset="0.7455" style="stop-color:#FFD88A"/>
					</linearGradient>
					<polygon style="fill:url(#SVGID_00000106838858261778531350000003132852282913420444_);" points="366.029,320.247 
						366.128,320.213 366.11,319.985 					"/>
					
						<linearGradient id="SVGID_00000074408976149681420260000006193788543270534589_" gradientUnits="userSpaceOnUse" x1="372.5775" y1="354.4783" x2="375.851" y2="475.595">
						<stop  offset="0" style="stop-color:#FFAD3D"/>
						<stop  offset="0.7455" style="stop-color:#FFD88A"/>
					</linearGradient>
					<path style="fill:url(#SVGID_00000074408976149681420260000006193788543270534589_);" d="M424.112,361.677
						c-1.578-33.348-12.794-56.887-12.794-56.887l-45.19,15.423l0.589,7.673l-13.286-7.64l-27.531,2.198l-4.754,30.757l3.046,88.926
						h39.38h11.915h45.828C421.316,442.128,425.691,395.025,424.112,361.677z"/>
				</g>
				
					<linearGradient id="SVGID_00000103227631286497756370000013147366471832154010_" gradientUnits="userSpaceOnUse" x1="339.9794" y1="187.8851" x2="343.7776" y2="136.4365">
					<stop  offset="0" style="stop-color:#ED7A62"/>
					<stop  offset="0.5917" style="stop-color:#FF8C62"/>
				</linearGradient>
				<path style="fill:url(#SVGID_00000103227631286497756370000013147366471832154010_);" d="M346.536,152.699
					c0,0-1.65-7.257-6.557-3.253c-4.908,4.004-2.018,18.277,6.627,13.619"/>
				
					<linearGradient id="SVGID_00000004543993070518645640000017219775594226153892_" gradientUnits="userSpaceOnUse" x1="363.0463" y1="354.402" x2="424.4883" y2="354.402">
					<stop  offset="0" style="stop-color:#FFAD3D"/>
					<stop  offset="0.7455" style="stop-color:#FFD88A"/>
				</linearGradient>
				<path style="fill:url(#SVGID_00000004543993070518645640000017219775594226153892_);" d="M363.046,324.057l15.417,60.69
					c0,0,31.869-2.102,44.541-9.781C435.675,367.288,363.046,324.057,363.046,324.057z"/>
				<g>
					
						<linearGradient id="SVGID_00000065038667429500200400000002038742003654856864_" gradientUnits="userSpaceOnUse" x1="388.5358" y1="191.4698" x2="392.334" y2="140.0212">
						<stop  offset="0" style="stop-color:#ED7A62"/>
						<stop  offset="0.5917" style="stop-color:#FF8C62"/>
					</linearGradient>
					<path style="fill:url(#SVGID_00000065038667429500200400000002038742003654856864_);" d="M387.547,151.43
						c0,0,1.333-6.215,5.566-2.847c4.233,3.368,1.915,15.588-5.518,11.701"/>
					
						<linearGradient id="SVGID_00000088099536814436526340000017890887829050904760_" gradientUnits="userSpaceOnUse" x1="388.5358" y1="191.4698" x2="392.334" y2="140.0212">
						<stop  offset="0" style="stop-color:#ED7A62"/>
						<stop  offset="0.5917" style="stop-color:#FF8C62"/>
					</linearGradient>
					<path style="opacity:0.24;fill:url(#SVGID_00000088099536814436526340000017890887829050904760_);" d="M387.547,151.43
						c0,0,1.333-6.215,5.566-2.847c4.233,3.368,1.915,15.588-5.518,11.701"/>
				</g>
				<path style="fill:#FFF9E2;" d="M341.749,196.53c0,0,9.29,8.555,27.41,6.014c18.121-2.541,19.244-6.451,19.244-6.451
					l14.918,5.665l8.198,18.471c0,0,6.002,15.764,5.901,17.068c-0.1,1.304-5.549,20.996-5.549,20.996l0.921,70.461
					c0,0-12.343,14.091-41.818,15.759c-29.475,1.668-46.792-10.768-46.792-10.768l4.011-52.156l3.075-39.986l2.607-33.902
					l-0.992-11.006L341.749,196.53z"/>
				
					<linearGradient id="SVGID_00000024711943636800732410000006294169217234460055_" gradientUnits="userSpaceOnUse" x1="420.6576" y1="196.1938" x2="380.6471" y2="396.2466">
					<stop  offset="0" style="stop-color:#F4454B"/>
					<stop  offset="1" style="stop-color:#ED7A62"/>
				</linearGradient>
				<path style="fill:url(#SVGID_00000024711943636800732410000006294169217234460055_);" d="M386.511,193.698
					c0,0-2.174-0.41-1.551,17.485c2.152,61.802-31.67,106.702-31.67,106.702l27.069,61.951c0,0,35.243,2.009,47.973-6.869
					c0,0,2.764-16.947,0.53-30.627c-2.234-13.68-9.884-37.633-9.284-54.929c0.6-17.296,4.009-40.353,4.009-40.353l-9.609-38.754
					C413.978,208.303,407.692,199.709,386.511,193.698z"/>
				
					<linearGradient id="SVGID_00000125563606633772882880000014432443402418522018_" gradientUnits="userSpaceOnUse" x1="323.6824" y1="351.8979" x2="392.902" y2="351.8979">
					<stop  offset="0" style="stop-color:#FFAD3D"/>
					<stop  offset="0.7455" style="stop-color:#FFD88A"/>
				</linearGradient>
				<polygon style="fill:url(#SVGID_00000125563606633772882880000014432443402418522018_);" points="368.553,329.961 
					392.902,317.957 364.972,385.838 323.682,377.864 				"/>
				
					<linearGradient id="SVGID_00000032621092051410664510000011735904611792497594_" gradientUnits="userSpaceOnUse" x1="369.739" y1="186.0101" x2="329.7286" y2="386.0622">
					<stop  offset="0" style="stop-color:#F4454B"/>
					<stop  offset="1" style="stop-color:#ED7A62"/>
				</linearGradient>
				<path style="fill:url(#SVGID_00000032621092051410664510000011735904611792497594_);" d="M339.191,197.015
					c0,0,7.107,0.695,7.671,14.544c2.621,64.277,46.04,106.398,46.04,106.398l-30.476,63.37c0,0-47.108-0.987-51.268-8.609
					c0,0,6.727-35.261,7.816-44.67c1.089-9.409,1.619-16.304,3.182-31.883c1.563-15.579-2.876-33.809-1.648-45.033
					c1.228-11.223-5.306-40.202-5.306-40.202S325.769,194.827,339.191,197.015z"/>
				<path style="fill:#FA9900;" d="M395.745,196.658l6.376-1.754c0,0-2.04,2.998-4.703,6.533
					c-2.047,2.717-7.382,10.058-11.076,18.097L395.745,196.658z"/>
				<path style="fill:#FA9900;" d="M330.21,201.381l-6.527,1.061c0,0,6.203,4.31,9.453,8.044c2.233,2.566,7.06,6.987,12.262,15.371
					L330.21,201.381z"/>
				
					<linearGradient id="SVGID_00000170239763481321690670000011110522314189675156_" gradientUnits="userSpaceOnUse" x1="343.1984" y1="180.702" x2="303.188" y2="380.7547">
					<stop  offset="0" style="stop-color:#F4454B"/>
					<stop  offset="1" style="stop-color:#ED7A62"/>
				</linearGradient>
				<path style="fill:url(#SVGID_00000170239763481321690670000011110522314189675156_);" d="M350.324,192.197
					c-5.65,15.782-2.736,28.289-1.505,36.59c0,0-10.439-21.231-25.093-26.916C323.726,201.872,355.182,178.629,350.324,192.197z"/>
				
					<linearGradient id="SVGID_00000065767672685556803670000016833108053373850004_" gradientUnits="userSpaceOnUse" x1="393.1087" y1="190.6841" x2="353.0982" y2="390.7372">
					<stop  offset="0" style="stop-color:#F4454B"/>
					<stop  offset="1" style="stop-color:#ED7A62"/>
				</linearGradient>
				<path style="fill:url(#SVGID_00000065767672685556803670000016833108053373850004_);" d="M383.934,191.088
					c2.544,11.789,0.302,33.897,0.302,33.897s6.399-17.652,9.702-21.874c6.11-7.811,8.184-8.208,8.184-8.208
					S381.173,178.297,383.934,191.088z"/>
				<path style="fill:#FA9900;" d="M352.157,185.388c0,0-7.589,3.404-4.993,21.284c0,0,0.703-11.812,3.16-14.475
					C350.324,192.197,353.073,189.107,352.157,185.388z"/>
				<path style="fill:#FA9900;" d="M383.083,185.708c0,0-0.173,6.01,1.254,7.58l0.689,7.41
					C385.026,200.698,387.253,191.238,383.083,185.708z"/>
				<path style="fill:#FA9900;" d="M396.193,271.994"/>
				<path style="fill:#FA9900;" d="M374.909,337.696c0,1.999-1.62,3.618-3.618,3.618c-1.999,0-3.619-1.62-3.619-3.618
					c0-1.998,1.62-3.619,3.619-3.619C373.289,334.077,374.909,335.697,374.909,337.696z"/>
				<path style="fill:#FA9900;" d="M382.146,321.53c0,1.998-1.62,3.618-3.619,3.618c-1.999,0-3.619-1.62-3.619-3.618
					c0-1.998,1.62-3.619,3.619-3.619C380.526,317.911,382.146,319.531,382.146,321.53z"/>
				<g>
					
						<linearGradient id="SVGID_00000129190511926122053440000009690255531694492062_" gradientUnits="userSpaceOnUse" x1="365.2633" y1="160.9773" x2="371.8436" y2="160.9773">
						<stop  offset="0" style="stop-color:#ED7A62"/>
						<stop  offset="0.5917" style="stop-color:#FF8C62"/>
					</linearGradient>
					<path style="fill:url(#SVGID_00000129190511926122053440000009690255531694492062_);" d="M367.451,153.338
						c0,0-0.126,10.093,2.758,13.163c0,0-2.38,2.241-4.946,2.035c0,0,4.354,0.627,6.58-1.61
						C371.844,166.926,367.785,159.068,367.451,153.338z"/>
					<g>
						<path style="fill:#3F1703;" d="M377.337,145.688c1.004-0.044,1.826,0.093,2.691,0.3c0.845,0.216,1.663,0.508,2.421,0.908
							c0.754,0.401,1.476,0.85,2.11,1.401c0.652,0.526,1.213,1.143,1.742,1.769c-0.636-0.523-1.285-1.018-1.995-1.404
							c-0.693-0.412-1.443-0.704-2.192-0.943c-0.752-0.238-1.53-0.362-2.297-0.415c-0.749-0.051-1.578-0.01-2.201,0.138
							l-0.033,0.008c-0.48,0.114-0.962-0.183-1.076-0.663c-0.114-0.48,0.183-0.962,0.663-1.076
							C377.223,145.699,377.283,145.691,377.337,145.688z"/>
					</g>
					<g>
						<path style="fill:#3F1703;" d="M357.007,148.289c-0.667-0.1-1.54-0.069-2.322,0.052c-0.8,0.125-1.605,0.325-2.372,0.641
							c-0.764,0.318-1.525,0.692-2.215,1.186c-0.711,0.469-1.347,1.046-1.967,1.651c0.499-0.703,1.032-1.401,1.669-2.011
							c0.615-0.635,1.333-1.17,2.088-1.658c0.759-0.487,1.591-0.867,2.458-1.169c0.889-0.295,1.738-0.512,2.796-0.556
							c0.519-0.022,0.958,0.382,0.979,0.901c0.022,0.519-0.382,0.958-0.901,0.979c-0.059,0.002-0.117-0.001-0.173-0.009
							L357.007,148.289z"/>
					</g>
					
						<linearGradient id="SVGID_00000169516887545460904120000017022614643792899248_" gradientUnits="userSpaceOnUse" x1="359.7348" y1="175.6094" x2="377.3721" y2="175.6094">
						<stop  offset="0" style="stop-color:#032C63"/>
						<stop  offset="1" style="stop-color:#033D63"/>
					</linearGradient>
					<path style="fill:url(#SVGID_00000169516887545460904120000017022614643792899248_);" d="M359.735,172.96
						c0,0,7.35,11.625,17.637,0.436C377.372,173.396,367.768,178.65,359.735,172.96z"/>
					<g>
						<g>
							<path style="fill:#3F1703;" d="M360.137,156.461c-0.426-0.883-1.123-1.55-1.953-1.892c-0.828-0.351-1.755-0.408-2.641-0.275
								c-0.885,0.146-1.743,0.489-2.433,1.044c-0.687,0.553-1.183,1.341-1.278,2.263l-0.025,0.24l-0.196-0.063
								c-0.51-0.165-1.024-0.305-1.529-0.493c0.538,0.021,1.067,0.088,1.601,0.132l-0.22,0.177
								c-0.078-1.025,0.399-2.096,1.184-2.785c0.772-0.708,1.769-1.128,2.786-1.262c1.015-0.143,2.095,0.009,2.999,0.524
								C359.345,154.575,359.974,155.501,360.137,156.461z"/>
						</g>
						<g>
							<polygon style="fill:#3F1703;" points="351.927,156.951 350.163,156.327 352.026,156.504 							"/>
						</g>
					</g>
					<g>
						<g>
							<path style="fill:#3F1703;" d="M375.317,156.461c0.162-0.959,0.791-1.886,1.703-2.39c0.903-0.514,1.984-0.666,2.999-0.524
								c1.018,0.135,2.014,0.554,2.786,1.262c0.785,0.689,1.263,1.76,1.184,2.785l-0.22-0.177c0.534-0.043,1.063-0.111,1.601-0.132
								c-0.505,0.187-1.02,0.328-1.529,0.493l-0.196,0.063l-0.025-0.24c-0.095-0.922-0.591-1.71-1.278-2.263
								c-0.69-0.555-1.548-0.898-2.433-1.044c-0.886-0.133-1.813-0.076-2.641,0.275
								C376.439,154.911,375.743,155.578,375.317,156.461z"/>
						</g>
						<g>
							<polygon style="fill:#3F1703;" points="383.427,156.504 385.29,156.327 383.526,156.951 							"/>
						</g>
					</g>
				</g>
				<g>
					<path style="fill:none;" d="M444.323,152.966"/>
				</g>
				<g style="opacity:0.2;">
					
						<linearGradient id="SVGID_00000072265212874834268230000009076151247920945071_" gradientUnits="userSpaceOnUse" x1="391.382" y1="142.6136" x2="391.382" y2="172.8032">
						<stop  offset="0" style="stop-color:#ED7A62"/>
						<stop  offset="1" style="stop-color:#FF8C62;stop-opacity:0"/>
					</linearGradient>
					<path style="fill:url(#SVGID_00000072265212874834268230000009076151247920945071_);" d="M387.547,151.43
						c0,0,1.333-6.215,5.566-2.847c4.233,3.368,1.915,15.588-5.518,11.701"/>
					
						<linearGradient id="SVGID_00000078015050535133106070000014106744757483808427_" gradientUnits="userSpaceOnUse" x1="391.382" y1="142.6136" x2="391.382" y2="172.8032">
						<stop  offset="0" style="stop-color:#ED7A62"/>
						<stop  offset="1" style="stop-color:#FF8C62;stop-opacity:0"/>
					</linearGradient>
					<path style="opacity:0.24;fill:url(#SVGID_00000078015050535133106070000014106744757483808427_);" d="M387.547,151.43
						c0,0,1.333-6.215,5.566-2.847c4.233,3.368,1.915,15.588-5.518,11.701"/>
				</g>
			</g>
			<g>
				<g>
					
						<linearGradient id="SVGID_00000181795535057478266190000001055239006647796364_" gradientUnits="userSpaceOnUse" x1="490.2792" y1="383.1079" x2="490.2792" y2="444.7532">
						<stop  offset="0" style="stop-color:#F4454B"/>
						<stop  offset="1" style="stop-color:#ED7A62"/>
					</linearGradient>
					<path style="fill:url(#SVGID_00000181795535057478266190000001055239006647796364_);" d="M517.764,433.269
						c3.2-29.57,5.758-65.136,5.758-65.136l-18.909-18.173c0,0-24.378-35.709-41.31-15.172c-13.653,16.559-1.361,71.509,2.867,98.48
						H517.764z"/>
					
						<linearGradient id="SVGID_00000158718497214077636430000003272285234117043898_" gradientUnits="userSpaceOnUse" x1="490.2792" y1="383.1079" x2="490.2792" y2="444.7532">
						<stop  offset="0" style="stop-color:#F4454B"/>
						<stop  offset="1" style="stop-color:#ED7A62"/>
					</linearGradient>
					<path style="opacity:0.37;fill:url(#SVGID_00000158718497214077636430000003272285234117043898_);" d="M517.764,433.269
						c3.2-29.57,5.758-65.136,5.758-65.136l-18.909-18.173c0,0-24.378-35.709-41.31-15.172c-13.653,16.559-1.361,71.509,2.867,98.48
						H517.764z"/>
				</g>
				
					<linearGradient id="SVGID_00000028298108248452795140000017602134156737535906_" gradientUnits="userSpaceOnUse" x1="494.0466" y1="258.9089" x2="483.862" y2="140.3325">
					<stop  offset="0" style="stop-color:#032C63"/>
					<stop  offset="1" style="stop-color:#033D63"/>
				</linearGradient>
				<path style="fill:url(#SVGID_00000028298108248452795140000017602134156737535906_);" d="M499.94,141.263h-6.784
					c0,0-11.633,1.442-17.406-1.444c-5.773-2.886-11.978,18.931,0,23.609C487.729,168.107,499.94,141.263,499.94,141.263z"/>
				
					<linearGradient id="SVGID_00000052102041932957816110000010371799540340554370_" gradientUnits="userSpaceOnUse" x1="518.2174" y1="256.8331" x2="508.0328" y2="138.2563">
					<stop  offset="0" style="stop-color:#032C63"/>
					<stop  offset="1" style="stop-color:#033D63"/>
				</linearGradient>
				<path style="fill:url(#SVGID_00000052102041932957816110000010371799540340554370_);" d="M482.018,182.063
					c0,0-10.627,27.933-0.645,50.768c9.982,22.836,51.181,23.221,51.181,23.221l21.063-22.422l-5.451-28.547L482.018,182.063z"/>
				
					<linearGradient id="SVGID_00000088133735281684805120000015246785696458196624_" gradientUnits="userSpaceOnUse" x1="484.2171" y1="219.0576" x2="544.1166" y2="219.0576">
					<stop  offset="0" style="stop-color:#032C63"/>
					<stop  offset="1" style="stop-color:#033D63"/>
				</linearGradient>
				<path style="opacity:0.36;fill:url(#SVGID_00000088133735281684805120000015246785696458196624_);" d="M488.068,182.063
					c0,0-8.319,27.933-0.504,50.768c7.814,22.836,40.065,23.221,40.065,23.221l16.488-22.422l-4.267-28.547L488.068,182.063z"/>
				<g>
					
						<linearGradient id="SVGID_00000124849455546921839510000017948407140143865247_" gradientUnits="userSpaceOnUse" x1="489.6449" y1="347.3722" x2="531.9796" y2="478.0896">
						<stop  offset="0" style="stop-color:#F4454B"/>
						<stop  offset="1" style="stop-color:#ED7A62"/>
					</linearGradient>
					<path style="fill:url(#SVGID_00000124849455546921839510000017948407140143865247_);" d="M553.577,433.269
						c-8.95-29.579-26.613-77.49-26.613-77.49l-24.72-8.76c0,0-36.933-22.481-43.891,3.211
						c-5.189,19.159,23.382,59.086,39.55,83.038H553.577z"/>
					
						<linearGradient id="SVGID_00000036253457630076526080000006283680444900695217_" gradientUnits="userSpaceOnUse" x1="457.7323" y1="385.5927" x2="524.3459" y2="385.5927">
						<stop  offset="0" style="stop-color:#F4454B"/>
						<stop  offset="1" style="stop-color:#ED7A62"/>
					</linearGradient>
					<path style="opacity:0.15;fill:url(#SVGID_00000036253457630076526080000006283680444900695217_);" d="M524.346,433.269
						c-13.035-25.819-36.959-69.443-33.483-91.744c-11.465-4.472-28.074-7.673-32.51,8.706
						c-5.189,19.159,23.382,59.086,39.55,83.038H524.346z"/>
				</g>
				
					<linearGradient id="SVGID_00000137099210754006206850000011392104874796621977_" gradientUnits="userSpaceOnUse" x1="504.1837" y1="225.1808" x2="504.1837" y2="192.9904">
					<stop  offset="0" style="stop-color:#ED7A62"/>
					<stop  offset="0.5917" style="stop-color:#FF8C62"/>
				</linearGradient>
				<path style="fill:url(#SVGID_00000137099210754006206850000011392104874796621977_);" d="M505.239,189.193l12.141-6.07
					c0,0-1.056,30.88,7.39,37.742c0,0-21.642,19.267-41.173,2.111c0,0,7.918-13.196,4.751-29.824
					C485.181,176.525,505.239,189.193,505.239,189.193z"/>
				
					<linearGradient id="SVGID_00000016771209625145942080000011667044199687189672_" gradientUnits="userSpaceOnUse" x1="504.3468" y1="194.2104" x2="489.07" y2="222.5815">
					<stop  offset="0" style="stop-color:#ED7A62"/>
					<stop  offset="1" style="stop-color:#FF8C62;stop-opacity:0"/>
				</linearGradient>
				<path style="fill:url(#SVGID_00000016771209625145942080000011667044199687189672_);" d="M505.945,195l7.212-2.111
					c0,0-0.224,21.501-26.182,22.751l3.748-15.888L505.945,195z"/>
				<g>
					
						<linearGradient id="SVGID_00000019676983469673035800000014239961983711480486_" gradientUnits="userSpaceOnUse" x1="486.898" y1="205.8048" x2="499.9923" y2="151.245">
						<stop  offset="0" style="stop-color:#ED7A62"/>
						<stop  offset="0.5917" style="stop-color:#FF8C62"/>
					</linearGradient>
					<path style="fill:url(#SVGID_00000019676983469673035800000014239961983711480486_);" d="M502.189,142.732
						c-10.666-1.9-20.294,0.725-26.887,12.835c-3.94,7.237-1.621,19.545-4.821,23.298c-2.109,2.474-3.438,1.888-2.656,3.47
						c1.045,2.115,3.582,2.558,3.582,2.558s1.909,18.424,12.057,20.968c11.425,2.865,24.45-2.578,30.792-12.832
						C518.546,186.092,525.513,146.888,502.189,142.732z"/>
					<g>
						
							<linearGradient id="SVGID_00000060026699878756799010000012353131687727855754_" gradientUnits="userSpaceOnUse" x1="486.898" y1="205.8048" x2="499.9923" y2="151.245">
							<stop  offset="0" style="stop-color:#ED7A62"/>
							<stop  offset="0.5917" style="stop-color:#FF8C62"/>
						</linearGradient>
						<path style="fill:url(#SVGID_00000060026699878756799010000012353131687727855754_);" d="M502.189,142.732
							c-10.666-1.9-20.294,0.725-26.887,12.835c-3.94,7.237-1.621,19.545-4.821,23.298c-2.109,2.474-3.438,1.888-2.656,3.47
							c1.045,2.115,3.582,2.558,3.582,2.558s1.909,18.424,12.057,20.968c11.425,2.865,24.45-2.578,30.792-12.832
							C518.546,186.092,525.513,146.888,502.189,142.732z"/>
					</g>
				</g>
				
					<linearGradient id="SVGID_00000079473272884226769730000003738396972094103984_" gradientUnits="userSpaceOnUse" x1="519.5872" y1="256.7155" x2="509.4026" y2="138.1387">
					<stop  offset="0" style="stop-color:#032C63"/>
					<stop  offset="1" style="stop-color:#033D63"/>
				</linearGradient>
				<path style="fill:url(#SVGID_00000079473272884226769730000003738396972094103984_);" d="M480.216,142.173
					c0,0,7.34,0.129,8.923,9.807c1.584,9.677,8.622,20.41,20.763,18.827c12.141-1.583,9.589,16.232,9.589,16.232l21.554-24.326
					c0,0-6.027-17.513-26.393-22.346C505.808,138.268,487.478,142.838,480.216,142.173z"/>
				
					<linearGradient id="SVGID_00000044886768394456380730000007790153433671921311_" gradientUnits="userSpaceOnUse" x1="553.4145" y1="380.9352" x2="577.1161" y2="380.9352">
					<stop  offset="0" style="stop-color:#ED7A62"/>
					<stop  offset="0.5917" style="stop-color:#FF8C62"/>
				</linearGradient>
				<path style="fill:url(#SVGID_00000044886768394456380730000007790153433671921311_);" d="M562.854,358.264
					c0,0,10.194,10.362,12.46,15.543c2.265,5.181,1.753,17.293,1.753,17.293s-7.618,12.943-11.192,12.497
					c-0.847-0.106-2.041,0.011-1.604-3.438c0.401-3.162,5.332-8.046,5.316-11.241c-0.015-3.074-5.223-10.75-5.223-10.75
					s-3.917,1.32-3.398,9.887c0.313,5.184-5.286,2.591-6.041-1.295c-0.755-3.886-1.51-18.621-1.51-18.621L562.854,358.264z"/>
				
					<linearGradient id="SVGID_00000143591381614616257490000018256619274804542886_" gradientUnits="userSpaceOnUse" x1="543.2659" y1="290.5875" x2="539.9926" y2="439.5284">
					<stop  offset="0" style="stop-color:#FFAD3D"/>
					<stop  offset="0.7455" style="stop-color:#FFD88A"/>
				</linearGradient>
				<path style="fill:url(#SVGID_00000143591381614616257490000018256619274804542886_);" d="M515.797,257.287l6-40.488
					c0,0,21.053,4.203,21.976,45.767c0.517,23.251,4.487,44.34,4.487,44.34l21.642,54.897c0,0-17.947,14.252-26.129,14.252
					l-19.531-32.2L515.797,257.287z"/>
				
					<linearGradient id="SVGID_00000083076917580548634860000014755143084608652969_" gradientUnits="userSpaceOnUse" x1="519.9788" y1="324.8126" x2="554.0162" y2="324.8126">
					<stop  offset="0" style="stop-color:#FFAD3D"/>
					<stop  offset="0.7455" style="stop-color:#FFD88A"/>
				</linearGradient>
				<path style="fill:url(#SVGID_00000083076917580548634860000014755143084608652969_);" d="M519.979,300.152l11.13-26.582
					l6.735,41.708l16.173,56.529c0,0-4.437,4.248-10.243,4.248l-19.531-32.2L519.979,300.152z"/>
				
					<linearGradient id="SVGID_00000028310214979637202400000012410951652446211768_" gradientUnits="userSpaceOnUse" x1="496.7136" y1="289.5644" x2="493.4403" y2="438.5051">
					<stop  offset="0" style="stop-color:#FFAD3D"/>
					<stop  offset="0.7455" style="stop-color:#FFD88A"/>
				</linearGradient>
				<path style="fill:url(#SVGID_00000028310214979637202400000012410951652446211768_);" d="M486.342,215.639
					c0,0,17.964,15.832,35.454,1.159c0,0,6.404,4.305,11.683,13.291c5.279,8.986-1.584,40.394-1.584,40.394
					s3.959,78.123,8.71,86.305c0,0-27.712,10.029-57.008,6.862c-24.667-2.667-33.783-4.487-33.783-4.487
					s10.477-61.365,12.932-84.193c1.259-11.706,4.012-51.835,4.012-51.835S476.84,215.085,486.342,215.639z"/>
				
					<linearGradient id="SVGID_00000181798946446556154280000006207523405666095800_" gradientUnits="userSpaceOnUse" x1="533.0034" y1="255.5631" x2="522.8188" y2="136.9865">
					<stop  offset="0" style="stop-color:#032C63"/>
					<stop  offset="1" style="stop-color:#033D63"/>
				</linearGradient>
				<path style="fill:url(#SVGID_00000181798946446556154280000006207523405666095800_);" d="M522.782,163.428
					c0,0-28.124-0.796-24.933,1.483c11.085,7.918,13.917,16.126,11.012,35.755c-10.337,69.835,35.117,78.104,39.305,67.856
					c9.423-23.059,21.736-103.862-28.675-125.815L522.782,163.428z"/>
				
					<linearGradient id="SVGID_00000139293170700148270040000000623356275531041414_" gradientUnits="userSpaceOnUse" x1="504.3869" y1="175.2882" x2="515.2029" y2="175.2882">
					<stop  offset="0" style="stop-color:#ED7A62"/>
					<stop  offset="0.5917" style="stop-color:#FF8C62"/>
				</linearGradient>
				<path style="fill:url(#SVGID_00000139293170700148270040000000623356275531041414_);" d="M504.387,172.018
					c0,0,6.365-7.311,9.751-2.395c3.386,4.916-1.694,15.689-9.726,12.426"/>
				
					<linearGradient id="SVGID_00000013179383525570974750000013357136935364470422_" gradientUnits="userSpaceOnUse" x1="501.9259" y1="209.4116" x2="515.0203" y2="154.8517">
					<stop  offset="0" style="stop-color:#ED7A62"/>
					<stop  offset="0.5917" style="stop-color:#FF8C62"/>
				</linearGradient>
				<path style="fill:url(#SVGID_00000013179383525570974750000013357136935364470422_);" d="M504.227,172.5
					c0,0,6.887-7.911,10.551-2.592c3.664,5.32,0.424,20.181-10.525,13.446"/>
				
					<linearGradient id="SVGID_00000166639096461273797790000004494482774530738319_" gradientUnits="userSpaceOnUse" x1="449.8144" y1="305.3844" x2="540.6058" y2="305.3844">
					<stop  offset="0" style="stop-color:#FFAD3D"/>
					<stop  offset="0.7455" style="stop-color:#FFD88A"/>
				</linearGradient>
				<path style="fill:url(#SVGID_00000166639096461273797790000004494482774530738319_);" d="M465.781,295.53
					c-5.23-19.996-0.535-26.045-0.536-39.039c0-2.41-0.06-5.903-0.156-9.99c-0.815,11.011-1.746,22.927-2.343,28.47
					c-2.456,22.829-12.932,84.193-12.932,84.193s9.116,1.82,33.783,4.487c29.296,3.167,57.008-6.862,57.008-6.862
					C539.68,355.193,483.597,363.65,465.781,295.53z"/>
				
					<linearGradient id="SVGID_00000111894211144465003550000001817951454511457680_" gradientUnits="userSpaceOnUse" x1="490.2792" y1="380.7346" x2="518.277" y2="380.7346">
					<stop  offset="0" style="stop-color:#ED7A62"/>
					<stop  offset="0.5917" style="stop-color:#FF8C62"/>
				</linearGradient>
				<path style="fill:url(#SVGID_00000111894211144465003550000001817951454511457680_);" d="M504.907,369.289l13.37,9.404
					c0,0-12.956,12.056-20.68,13.488l-7.318-8.726L504.907,369.289z"/>
				
					<linearGradient id="SVGID_00000057143621349230137010000004197222514068095396_" gradientUnits="userSpaceOnUse" x1="477.5515" y1="289.1432" x2="474.2782" y2="438.084">
					<stop  offset="0" style="stop-color:#FFAD3D"/>
					<stop  offset="0.7455" style="stop-color:#FFD88A"/>
				</linearGradient>
				<path style="fill:url(#SVGID_00000057143621349230137010000004197222514068095396_);" d="M467.5,222.487L467.5,222.487
					c0,0-12.873,7.424-16.474,26.872c-3.601,19.447-14.038,53.075-10.084,71.915c3.382,16.112,49.45,67.281,49.45,67.281
					l22.414-19.267l-37.636-59.82l11.437-57.925l0.889-4.683C489.885,234.279,480.305,222.603,467.5,222.487z"/>
				
					<linearGradient id="SVGID_00000025432855178889625990000005267945990811188897_" gradientUnits="userSpaceOnUse" x1="475.1696" y1="314.6685" x2="510.7175" y2="314.6685">
					<stop  offset="0" style="stop-color:#FFAD3D"/>
					<stop  offset="0.7455" style="stop-color:#FFD88A"/>
				</linearGradient>
				<polygon style="fill:url(#SVGID_00000025432855178889625990000005267945990811188897_);" points="480.389,263.367 
					475.17,309.469 510.717,365.97 483.597,311.104 				"/>
				
					<linearGradient id="SVGID_00000072970497208536203700000008072755862626068896_" gradientUnits="userSpaceOnUse" x1="510.8843" y1="211.9057" x2="556.7076" y2="211.9057">
					<stop  offset="0" style="stop-color:#032C63"/>
					<stop  offset="1" style="stop-color:#033D63"/>
				</linearGradient>
				<path style="opacity:0.36;fill:url(#SVGID_00000072970497208536203700000008072755862626068896_);" d="M533.635,151.673
					c20.51,31.911,19.779,66.226,10.481,81.957c-3.33,5.633-21.08,26.385-33.232,11.286c9.36,28.709,34.236,31.061,37.282,23.607
					C556.578,247.94,567.287,181.349,533.635,151.673z"/>
			</g>
			<g>
				
					<linearGradient id="SVGID_00000166646073746739917350000001643041648443614387_" gradientUnits="userSpaceOnUse" x1="267.6859" y1="225.2227" x2="281.843" y2="194.4916">
					<stop  offset="0" style="stop-color:#ED7A62"/>
					<stop  offset="0.5917" style="stop-color:#FF8C62"/>
				</linearGradient>
				<path style="fill:url(#SVGID_00000166646073746739917350000001643041648443614387_);" d="M299.311,203.005
					c0,0-11.985-0.768-21.183,41.48c-9.198,42.247-9.544-10.818-9.544-10.818l-16.691-21.495c0,0,16.986-17.786,17.226-31.915
					C269.358,166.128,299.311,203.005,299.311,203.005z"/>
				
					<linearGradient id="SVGID_00000114056696072446564630000000297262068944083641_" gradientUnits="userSpaceOnUse" x1="284.112" y1="193.388" x2="265.1209" y2="224.1191">
					<stop  offset="0" style="stop-color:#ED7A62"/>
					<stop  offset="1" style="stop-color:#FF8C62;stop-opacity:0"/>
				</linearGradient>
				<path style="fill:url(#SVGID_00000114056696072446564630000000297262068944083641_);" d="M305.371,190.746l-16.356,22.74
					c0,0-22.863,17.05-33.772-5.142l12.842-12.629L305.371,190.746z"/>
				<g>
					
						<linearGradient id="SVGID_00000031182434689323388960000007147365358483417739_" gradientUnits="userSpaceOnUse" x1="224.8562" y1="357.7792" x2="242.6814" y2="513.7498">
						<stop  offset="0" style="stop-color:#FFAD3D"/>
						<stop  offset="0.7455" style="stop-color:#FFD88A"/>
					</linearGradient>
					<path style="fill:url(#SVGID_00000031182434689323388960000007147365358483417739_);" d="M198.507,469.273
						c23.302-13.757,17.525-24.456,17.525-38.381c0-13.924-5.484-63.145-3.094-70.653c4.787-15.043,52.594-24.49,52.594-24.49
						l8.26,95.143l-6.189,23.207C267.604,454.1,175.29,482.98,198.507,469.273z"/>
					
						<linearGradient id="SVGID_00000132807016865384196410000013249323636276724363_" gradientUnits="userSpaceOnUse" x1="224.4749" y1="357.8228" x2="242.3001" y2="513.7932">
						<stop  offset="0" style="stop-color:#FFAD3D"/>
						<stop  offset="0.7455" style="stop-color:#FFD88A"/>
					</linearGradient>
					<path style="opacity:0.53;fill:url(#SVGID_00000132807016865384196410000013249323636276724363_);" d="M198.507,469.273
						c22.192-15.485,17.525-24.456,17.525-38.381c0-13.924-5.484-63.145-3.094-70.653c4.787-15.043,52.594-24.49,52.594-24.49
						l8.26,95.143l-6.189,23.207C267.604,454.1,172.969,487.093,198.507,469.273z"/>
					
						<linearGradient id="SVGID_00000124841315622766446340000017551057990933720238_" gradientUnits="userSpaceOnUse" x1="244.4611" y1="355.5387" x2="262.2862" y2="511.5083">
						<stop  offset="0" style="stop-color:#FFAD3D"/>
						<stop  offset="0.7455" style="stop-color:#FFD88A"/>
					</linearGradient>
					<path style="opacity:0.53;fill:url(#SVGID_00000124841315622766446340000017551057990933720238_);" d="M273.161,421.485
						l-48.139-50.859c0,0,20.962,83.83,19.497,94.526c-1.587,11.59,23.084-11.052,23.084-11.052L273.161,421.485z"/>
					
						<linearGradient id="SVGID_00000034063405721877177810000014605953919056500117_" gradientUnits="userSpaceOnUse" x1="262.2537" y1="353.5052" x2="280.0788" y2="509.4754">
						<stop  offset="0" style="stop-color:#FFAD3D"/>
						<stop  offset="0.7455" style="stop-color:#FFD88A"/>
					</linearGradient>
					<path style="fill:url(#SVGID_00000034063405721877177810000014605953919056500117_);" d="M263.364,357.145l23.817,8.44
						c0,0,29.469,79.929,30.5,94.369c1.031,14.44-54.593,74.181-54.318,36.435c0.139-19.088,8.845-27.96,5.823-39.306
						c-3.022-11.346-54.816-72.089-48.112-96.844C227.779,335.486,263.364,357.145,263.364,357.145z"/>
					
						<linearGradient id="SVGID_00000110446146660310554550000013608612814526013368_" gradientUnits="userSpaceOnUse" x1="246.7076" y1="355.2819" x2="264.5328" y2="511.252">
						<stop  offset="0" style="stop-color:#FFAD3D"/>
						<stop  offset="0.7455" style="stop-color:#FFD88A"/>
					</linearGradient>
					<path style="opacity:0.53;fill:url(#SVGID_00000110446146660310554550000013608612814526013368_);" d="M278.128,484.298
						c1.407-15,9.782-21.109,7.747-25.686c-2.034-4.577-39.892-108.879-39.892-108.879l0,0
						c-10.063-2.682-21.412-2.404-24.908,10.506c-6.704,24.754,45.09,85.498,48.112,96.843c3.022,11.346-5.684,20.218-5.823,39.306
						C263.088,534.136,276.75,498.985,278.128,484.298z"/>
				</g>
				
					<linearGradient id="SVGID_00000044150479444250331210000018339169573661039520_" gradientUnits="userSpaceOnUse" x1="258.0214" y1="210.8221" x2="252.0796" y2="380.9045">
					<stop  offset="0" style="stop-color:#006BDA"/>
					<stop  offset="0.9967" style="stop-color:#009FDA"/>
				</linearGradient>
				<path style="fill:url(#SVGID_00000044150479444250331210000018339169573661039520_);" d="M255.767,208.641
					c0,0,4.05,8.423,10.936,14.652c4.132,3.738,9.285,6.686,15.198,6.551c0,0,5.629,6.006,6.647,22.281
					c1.017,16.274-0.305,38.51,1.221,50.024c1.526,11.515,5.881,60.339,9.95,65.425c4.069,5.086-10.664,8.646-30.562,5.849
					c-19.899-2.797-31.413-9.958-38.208-9.513c-17.122,1.121-14.109,6.799-21.869,2.816c0,0-8.646-21.515,1.017-51.198
					c9.663-29.682,21.361-67.473,21.361-67.473S250.656,205.717,255.767,208.641z"/>
				
					<linearGradient id="SVGID_00000089546279836007796240000000909577472344752528_" gradientUnits="userSpaceOnUse" x1="205.3851" y1="316.8011" x2="262.4807" y2="316.8011">
					<stop  offset="0" style="stop-color:#006BDA"/>
					<stop  offset="0.9967" style="stop-color:#009FDA"/>
				</linearGradient>
				<path style="opacity:0.55;fill:url(#SVGID_00000089546279836007796240000000909577472344752528_);" d="M226.032,305.58
					l26.384-40.57l-10.787,50.859l20.852,52.724l-40.942-4.961c0,0-10.954,8.13-12.459,3.096
					c-1.505-5.034-6.597-27.434-1.434-42.198C212.809,309.765,226.032,305.58,226.032,305.58z"/>
				
					<linearGradient id="SVGID_00000023251775115684775560000011609305236443865018_" gradientUnits="userSpaceOnUse" x1="235.5845" y1="377.4923" x2="273.7923" y2="377.4923">
					<stop  offset="0" style="stop-color:#ED7A62"/>
					<stop  offset="0.5917" style="stop-color:#FF8C62"/>
				</linearGradient>
				<path style="fill:url(#SVGID_00000023251775115684775560000011609305236443865018_);" d="M250.333,358.675l8.206,9.577
					l15.253,10.004c0,0-10.236,16.02-20.407,18.055l-17.8-25.533L250.333,358.675z"/>
				
					<linearGradient id="SVGID_00000101794336024074383780000010242792495664455299_" gradientUnits="userSpaceOnUse" x1="235.2354" y1="210.0262" x2="229.2936" y2="380.1078">
					<stop  offset="0" style="stop-color:#006BDA"/>
					<stop  offset="0.9967" style="stop-color:#009FDA"/>
				</linearGradient>
				<path style="fill:url(#SVGID_00000101794336024074383780000010242792495664455299_);" d="M251.893,226.696l3.35-18.353
					c0,0-14.886,6.27-27.346,25.323c-3.342,5.111-8.291,15.003-13.162,26.403c-8.519,19.938-16.798,44.489-15.827,56.138
					c1.526,18.309,28.82,60.664,42.213,69.668c0,0,10.68-12.198,21.361-17.284c0,0-26.896-47.638-32.55-60.277
					c0,0,12.715-30.307,26.446-44.265C270.109,250.091,251.893,226.696,251.893,226.696z"/>
				<g>
					
						<linearGradient id="SVGID_00000016037521801844833660000017582776240304297345_" gradientUnits="userSpaceOnUse" x1="281.9386" y1="211.965" x2="301.9656" y2="160.171">
						<stop  offset="0" style="stop-color:#ED7A62"/>
						<stop  offset="0.5917" style="stop-color:#FF8C62"/>
					</linearGradient>
					<path style="fill:url(#SVGID_00000016037521801844833660000017582776240304297345_);" d="M287.792,152.07
						c10.888-1.539,19.552,2.76,25.472,16.182c3.538,8.021,0.192,16.252,3.253,20.514c2.018,2.809,3.477,2.305,2.51,3.913
						c-1.294,2.15-4.024,2.396-4.024,2.396s-3.334,16.118-13.163,19.131c-8.844,2.711-27.095-3.129-32.6-16.737
						C265.984,189.424,262.835,155.598,287.792,152.07z"/>
				</g>
				
					<linearGradient id="SVGID_00000094590463580612543250000012590969549415453838_" gradientUnits="userSpaceOnUse" x1="241.6355" y1="169.5047" x2="319.3332" y2="169.5047">
					<stop  offset="0" style="stop-color:#032C63"/>
					<stop  offset="1" style="stop-color:#033D63"/>
				</linearGradient>
				<path style="fill:url(#SVGID_00000094590463580612543250000012590969549415453838_);" d="M281.577,166.505
					c2.628-1.703,5.669-1.512,8.725-0.83c17.146,3.83,27.075-1.425,28.67-7.551c1.326-5.092-1.011-11.796-6.965-12.168
					c-5.503-0.343-6.45-1.971-9.739-6.246c-1.66-2.157-3.752-4.53-6.472-4.427c-3.24,0.123-6.52,4.053-9.138,2.139
					c-6.176-4.517-17.467-2.944-21.72,4.195c-2.193,3.682-6.345,4.381-10.346,5.639c-5.773,1.814-7.588,7.752-6.637,11.781
					c1.151,4.874-0.903,7.56-3.456,11.188c-1.957,2.782-3.625,6.277-2.505,9.489c0.867,2.487,3.196,4.151,4.562,6.402
					c2.44,4.021,1.551,9.407,3.953,13.451c1.443,2.429,4.048,4.131,6.852,4.476c10.154,1.252,14.389-12.051,13.916-19.907
					c-0.559-9.271-1.863-11.97,1.6-13.993C275.353,168.698,278.452,168.531,281.577,166.505z"/>
				
					<linearGradient id="SVGID_00000121965365292570237840000005968820585913971880_" gradientUnits="userSpaceOnUse" x1="266.5963" y1="173.2127" x2="279.0554" y2="173.2127">
					<stop  offset="0" style="stop-color:#ED7A62"/>
					<stop  offset="0.5917" style="stop-color:#FF8C62"/>
				</linearGradient>
				<path style="fill:url(#SVGID_00000121965365292570237840000005968820585913971880_);" d="M279.055,169.693
					c0-2.892-7.332-8.421-11.232-2.759c-3.901,5.662,1.951,18.072,11.204,14.313"/>
				<g style="opacity:0.41;">
					
						<linearGradient id="SVGID_00000077301532590169643900000002139869523290200721_" gradientUnits="userSpaceOnUse" x1="291.4964" y1="136.614" x2="298.6818" y2="136.614">
						<stop  offset="0" style="stop-color:#032C63"/>
						<stop  offset="1" style="stop-color:#033D63"/>
					</linearGradient>
					<path style="fill:url(#SVGID_00000077301532590169643900000002139869523290200721_);" d="M292.368,137.422
						c-0.277-0.203-0.576-0.379-0.872-0.557c1.4-0.714,2.855-1.527,4.302-1.582c1.052-0.04,2.008,0.296,2.884,0.841
						C296.411,137.203,294.223,138.779,292.368,137.422z"/>
					
						<linearGradient id="SVGID_00000156587079126834072900000014743144712674131894_" gradientUnits="userSpaceOnUse" x1="241.6355" y1="169.5092" x2="280.96" y2="169.5092">
						<stop  offset="0" style="stop-color:#032C63"/>
						<stop  offset="1" style="stop-color:#033D63"/>
					</linearGradient>
					<path style="fill:url(#SVGID_00000156587079126834072900000014743144712674131894_);" d="M244.502,170.226
						c2.553-3.629,4.607-6.315,3.456-11.188c-0.951-4.029,0.863-9.967,6.637-11.781c4.001-1.258,8.153-1.957,10.346-5.639
						c3.137-5.267,10.1-7.493,16.019-6.491c-4.19,0.69-8.155,2.872-10.311,6.491c-2.193,3.682-6.345,4.381-10.346,5.639
						c-5.773,1.814-7.588,7.753-6.637,11.781c1.15,4.874-0.903,7.56-3.456,11.188c-1.957,2.782-3.625,6.277-2.505,9.489
						c0.867,2.487,3.196,4.15,4.562,6.402c2.44,4.021,1.551,9.407,3.953,13.451c1.17,1.97,3.109,3.447,5.295,4.125
						c-1.256,0.395-2.636,0.538-4.151,0.351c-2.804-0.345-5.409-2.048-6.852-4.476c-2.402-4.044-1.513-9.43-3.953-13.451
						c-1.366-2.251-3.694-3.915-4.562-6.402C240.876,176.503,242.544,173.008,244.502,170.226z"/>
				</g>
				
					<linearGradient id="SVGID_00000170967687120825569340000003645650603826196154_" gradientUnits="userSpaceOnUse" x1="271.313" y1="211.2865" x2="265.3712" y2="381.3681">
					<stop  offset="0" style="stop-color:#006BDA"/>
					<stop  offset="0.9967" style="stop-color:#009FDA"/>
				</linearGradient>
				<path style="fill:url(#SVGID_00000170967687120825569340000003645650603826196154_);" d="M277.662,236.084l0.02-0.029
					c2.369-3.486,5.649-6.208,9.389-8.151c2.358-1.224,4.262-2.957,2.445-4.992c-3.632-4.069-5.101-1.524-13.914-7.301
					c-8.813-5.777-15.434-20.689-20.359-12.61c-3.35,5.495-3.35,9.17-3.35,9.17L277.662,236.084z"/>
			</g>
			<polygon style="opacity:0.12;fill:#006E58;" points="581.945,434.226 603.238,435.096 573.142,392.284 			"/>
		</g>
	</g>
</g>
</svg>
