<svg width="104" height="76" viewBox="0 0 104 76" fill="none" xmlns="http://www.w3.org/2000/svg">
<rect width="82.2326" height="4.83955" transform="translate(10.8838 44.7658)" fill="#B73678"/>
<ellipse cx="13.3023" cy="37.5065" rx="12.093" ry="12.0989" fill="#B73678"/>
<ellipse cx="26.6047" cy="26.6175" rx="12.093" ry="12.0989" fill="#B73678"/>
<ellipse cx="58.0465" cy="22.9879" rx="12.093" ry="12.0989" fill="#B73678"/>
<ellipse cx="70.1396" cy="16.9384" rx="12.093" ry="12.0989" fill="#B73678"/>
<ellipse cx="79.8139" cy="25.4076" rx="12.093" ry="12.0989" fill="#B73678"/>
<ellipse cx="30.2326" cy="37.5065" rx="12.093" ry="12.0989" fill="#B73678"/>
<ellipse cx="26.6047" cy="26.6175" rx="12.093" ry="12.0989" fill="#B73678"/>
<ellipse cx="12.093" cy="37.5065" rx="12.093" ry="12.0989" fill="#B73678"/>
<ellipse cx="44.7441" cy="36.2966" rx="12.093" ry="12.0989" fill="#B73678"/>
<ellipse cx="61.6744" cy="36.2966" rx="12.093" ry="12.0989" fill="#B73678"/>
<ellipse cx="73.7675" cy="37.5065" rx="12.093" ry="12.0989" fill="#B73678"/>
<ellipse cx="41.1163" cy="15.7285" rx="12.093" ry="12.0989" fill="#B73678"/>
<ellipse cx="56.8373" cy="12.0989" rx="12.093" ry="12.0989" fill="#B73678"/>
<ellipse cx="91.907" cy="37.5065" rx="12.093" ry="12.0989" fill="#B73678"/>
<rect width="82.2326" height="4.83955" transform="matrix(-1 0 0 -1 93.1163 31.2342)" fill="#B73678"/>
<ellipse cx="90.6977" cy="38.4935" rx="12.093" ry="12.0989" transform="rotate(-180 90.6977 38.4935)" fill="#B73678"/>
<ellipse cx="77.3953" cy="49.3825" rx="12.093" ry="12.0989" transform="rotate(-180 77.3953 49.3825)" fill="#B73678"/>
<ellipse cx="45.9535" cy="53.0121" rx="12.093" ry="12.0989" transform="rotate(-180 45.9535 53.0121)" fill="#B73678"/>
<ellipse cx="33.8604" cy="59.0616" rx="12.093" ry="12.0989" transform="rotate(-180 33.8604 59.0616)" fill="#B73678"/>
<ellipse cx="24.186" cy="50.5924" rx="12.093" ry="12.0989" transform="rotate(-180 24.186 50.5924)" fill="#B73678"/>
<ellipse cx="73.7674" cy="38.4935" rx="12.093" ry="12.0989" transform="rotate(-180 73.7674 38.4935)" fill="#B73678"/>
<ellipse cx="77.3953" cy="49.3825" rx="12.093" ry="12.0989" transform="rotate(-180 77.3953 49.3825)" fill="#B73678"/>
<ellipse cx="91.907" cy="38.4935" rx="12.093" ry="12.0989" transform="rotate(-180 91.907 38.4935)" fill="#B73678"/>
<ellipse cx="59.2558" cy="39.7034" rx="12.093" ry="12.0989" transform="rotate(-180 59.2558 39.7034)" fill="#B73678"/>
<ellipse cx="42.3255" cy="39.7034" rx="12.093" ry="12.0989" transform="rotate(-180 42.3255 39.7034)" fill="#B73678"/>
<ellipse cx="30.2325" cy="38.4935" rx="12.093" ry="12.0989" transform="rotate(-180 30.2325 38.4935)" fill="#B73678"/>
<ellipse cx="62.8837" cy="60.2715" rx="12.093" ry="12.0989" transform="rotate(-180 62.8837 60.2715)" fill="#B73678"/>
<ellipse cx="47.1627" cy="63.9011" rx="12.093" ry="12.0989" transform="rotate(-180 47.1627 63.9011)" fill="#B73678"/>
<ellipse cx="12.093" cy="38.4935" rx="12.093" ry="12.0989" transform="rotate(-180 12.093 38.4935)" fill="#B73678"/>
<rect width="77.5492" height="4.39883" transform="translate(13.2639 44.6891)" fill="#8E5572"/>
<ellipse cx="15.5447" cy="38.0909" rx="11.4043" ry="10.9971" fill="#8E5572"/>
<ellipse cx="28.0894" cy="28.1935" rx="11.4043" ry="10.9971" fill="#8E5572"/>
<ellipse cx="57.7406" cy="24.8944" rx="11.4043" ry="10.9971" fill="#8E5572"/>
<ellipse cx="69.1449" cy="18.3959" rx="11.4043" ry="10.9971" fill="#8E5572"/>
<ellipse cx="78.2683" cy="27.0939" rx="11.4043" ry="10.9971" fill="#8E5572"/>
<ellipse cx="31.5107" cy="38.0909" rx="11.4043" ry="10.9971" fill="#8E5572"/>
<ellipse cx="28.0894" cy="28.1935" rx="11.4043" ry="10.9971" fill="#8E5572"/>
<ellipse cx="14.4043" cy="38.0909" rx="11.4043" ry="10.9971" fill="#8E5572"/>
<ellipse cx="45.1959" cy="36.9912" rx="11.4043" ry="10.9971" fill="#8E5572"/>
<ellipse cx="61.1619" cy="36.9912" rx="11.4043" ry="10.9971" fill="#8E5572"/>
<ellipse cx="72.5662" cy="38.0909" rx="11.4043" ry="10.9971" fill="#8E5572"/>
<ellipse cx="42.7746" cy="17.1991" rx="11.4043" ry="10.9" fill="#8E5572"/>
<ellipse cx="57.1959" cy="13.9971" rx="11" ry="10.9971" fill="#8E5572"/>
<ellipse cx="89.6726" cy="38.0909" rx="11.4043" ry="10.9971" fill="#8E5572"/>
<rect width="77.5492" height="4.39883" transform="matrix(-1 0 0 -1 90.813 31.4927)" fill="#8E5572"/>
<ellipse cx="88.5322" cy="38.0909" rx="11.4043" ry="10.9971" transform="rotate(-180 88.5322 38.0909)" fill="#8E5572"/>
<ellipse cx="75.9874" cy="47.9883" rx="11.4043" ry="10.9971" transform="rotate(-180 75.9874 47.9883)" fill="#8E5572"/>
<ellipse cx="46.3362" cy="51.2874" rx="11.4043" ry="10.9971" transform="rotate(-180 46.3362 51.2874)" fill="#8E5572"/>
<ellipse cx="34.9319" cy="56.7859" rx="11.4043" ry="10.9971" transform="rotate(-180 34.9319 56.7859)" fill="#8E5572"/>
<ellipse cx="25.8085" cy="49.088" rx="11.4043" ry="10.9971" transform="rotate(-180 25.8085 49.088)" fill="#8E5572"/>
<ellipse cx="72.5661" cy="38.0909" rx="11.4043" ry="10.9971" transform="rotate(-180 72.5661 38.0909)" fill="#8E5572"/>
<ellipse cx="75.9874" cy="47.9883" rx="11.4043" ry="10.9971" transform="rotate(-180 75.9874 47.9883)" fill="#8E5572"/>
<ellipse cx="89.6725" cy="38.0909" rx="11.4043" ry="10.9971" transform="rotate(-180 89.6725 38.0909)" fill="#8E5572"/>
<ellipse cx="58.881" cy="39.1906" rx="11.4043" ry="10.9971" transform="rotate(-180 58.881 39.1906)" fill="#8E5572"/>
<ellipse cx="42.9149" cy="39.1906" rx="11.4043" ry="10.9971" transform="rotate(-180 42.9149 39.1906)" fill="#8E5572"/>
<ellipse cx="31.5107" cy="38.0909" rx="11.4043" ry="10.9971" transform="rotate(-180 31.5107 38.0909)" fill="#8E5572"/>
<ellipse cx="62.3022" cy="57.8856" rx="11.4043" ry="10.9971" transform="rotate(-180 62.3022 57.8856)" fill="#8E5572"/>
<ellipse cx="47.4767" cy="61.1847" rx="11.4043" ry="10.9971" transform="rotate(-180 47.4767 61.1847)" fill="#8E5572"/>
<ellipse cx="14.4042" cy="38.0909" rx="11.4043" ry="10.9971" transform="rotate(-180 14.4042 38.0909)" fill="#8E5572"/>
<path d="M46.89 54.9182C46.4567 54.9182 46.0933 54.8449 45.8 54.6982C45.5133 54.5515 45.3 54.3382 45.16 54.0582C45.02 53.7715 44.95 53.4182 44.95 52.9982V50.8682H44.43C44.27 50.8682 44.1467 50.8282 44.06 50.7482C43.9733 50.6615 43.93 50.5449 43.93 50.3982C43.93 50.2449 43.9733 50.1282 44.06 50.0482C44.1467 49.9682 44.27 49.9282 44.43 49.9282H44.95V49.0182C44.95 48.8115 45.0033 48.6549 45.11 48.5482C45.2233 48.4415 45.38 48.3882 45.58 48.3882C45.78 48.3882 45.9333 48.4415 46.04 48.5482C46.1467 48.6549 46.2 48.8115 46.2 49.0182V49.9282H47.26C47.42 49.9282 47.5433 49.9682 47.63 50.0482C47.7167 50.1282 47.76 50.2449 47.76 50.3982C47.76 50.5449 47.7167 50.6615 47.63 50.7482C47.5433 50.8282 47.42 50.8682 47.26 50.8682H46.2V52.9282C46.2 53.2482 46.27 53.4882 46.41 53.6482C46.55 53.8082 46.7767 53.8882 47.09 53.8882C47.2033 53.8882 47.3033 53.8782 47.39 53.8582C47.4767 53.8382 47.5533 53.8249 47.62 53.8182C47.7 53.8115 47.7667 53.8382 47.82 53.8982C47.8733 53.9515 47.9 54.0649 47.9 54.2382C47.9 54.3715 47.8767 54.4915 47.83 54.5982C47.79 54.6982 47.7133 54.7682 47.6 54.8082C47.5133 54.8349 47.4 54.8582 47.26 54.8782C47.12 54.9049 46.9967 54.9182 46.89 54.9182ZM50.8491 54.9182C50.2957 54.9182 49.8191 54.8149 49.4191 54.6082C49.0191 54.4015 48.7091 54.1082 48.4891 53.7282C48.2757 53.3482 48.1691 52.8982 48.1691 52.3782C48.1691 51.8715 48.2724 51.4282 48.4791 51.0482C48.6924 50.6682 48.9824 50.3715 49.3491 50.1582C49.7224 49.9382 50.1457 49.8282 50.6191 49.8282C50.9657 49.8282 51.2757 49.8849 51.5491 49.9982C51.8291 50.1115 52.0657 50.2749 52.2591 50.4882C52.4591 50.7015 52.6091 50.9615 52.7091 51.2682C52.8157 51.5682 52.8691 51.9082 52.8691 52.2882C52.8691 52.4082 52.8257 52.5015 52.7391 52.5682C52.6591 52.6282 52.5424 52.6582 52.3891 52.6582H49.1791V51.9382H51.9891L51.8291 52.0882C51.8291 51.7815 51.7824 51.5249 51.6891 51.3182C51.6024 51.1115 51.4724 50.9549 51.2991 50.8482C51.1324 50.7349 50.9224 50.6782 50.6691 50.6782C50.3891 50.6782 50.1491 50.7449 49.9491 50.8782C49.7557 51.0049 49.6057 51.1882 49.4991 51.4282C49.3991 51.6615 49.3491 51.9415 49.3491 52.2682V52.3382C49.3491 52.8849 49.4757 53.2949 49.7291 53.5682C49.9891 53.8349 50.3691 53.9682 50.8691 53.9682C51.0424 53.9682 51.2357 53.9482 51.4491 53.9082C51.6691 53.8615 51.8757 53.7849 52.0691 53.6782C52.2091 53.5982 52.3324 53.5649 52.4391 53.5782C52.5457 53.5849 52.6291 53.6215 52.6891 53.6882C52.7557 53.7549 52.7957 53.8382 52.8091 53.9382C52.8224 54.0315 52.8024 54.1282 52.7491 54.2282C52.7024 54.3282 52.6191 54.4149 52.4991 54.4882C52.2657 54.6349 51.9957 54.7449 51.6891 54.8182C51.3891 54.8849 51.1091 54.9182 50.8491 54.9182ZM56.269 54.9182C55.7157 54.9182 55.239 54.8149 54.839 54.6082C54.439 54.4015 54.129 54.1082 53.909 53.7282C53.6957 53.3482 53.589 52.8982 53.589 52.3782C53.589 51.8715 53.6923 51.4282 53.899 51.0482C54.1123 50.6682 54.4023 50.3715 54.769 50.1582C55.1423 49.9382 55.5657 49.8282 56.039 49.8282C56.3857 49.8282 56.6957 49.8849 56.969 49.9982C57.249 50.1115 57.4857 50.2749 57.679 50.4882C57.879 50.7015 58.029 50.9615 58.129 51.2682C58.2357 51.5682 58.289 51.9082 58.289 52.2882C58.289 52.4082 58.2457 52.5015 58.159 52.5682C58.079 52.6282 57.9623 52.6582 57.809 52.6582H54.599V51.9382H57.409L57.249 52.0882C57.249 51.7815 57.2023 51.5249 57.109 51.3182C57.0223 51.1115 56.8923 50.9549 56.719 50.8482C56.5523 50.7349 56.3423 50.6782 56.089 50.6782C55.809 50.6782 55.569 50.7449 55.369 50.8782C55.1757 51.0049 55.0257 51.1882 54.919 51.4282C54.819 51.6615 54.769 51.9415 54.769 52.2682V52.3382C54.769 52.8849 54.8957 53.2949 55.149 53.5682C55.409 53.8349 55.789 53.9682 56.289 53.9682C56.4623 53.9682 56.6557 53.9482 56.869 53.9082C57.089 53.8615 57.2957 53.7849 57.489 53.6782C57.629 53.5982 57.7523 53.5649 57.859 53.5782C57.9657 53.5849 58.049 53.6215 58.109 53.6882C58.1757 53.7549 58.2157 53.8382 58.229 53.9382C58.2423 54.0315 58.2223 54.1282 58.169 54.2282C58.1223 54.3282 58.039 54.4149 57.919 54.4882C57.6857 54.6349 57.4157 54.7449 57.109 54.8182C56.809 54.8849 56.529 54.9182 56.269 54.9182ZM59.8989 54.8982C59.6989 54.8982 59.5456 54.8449 59.4389 54.7382C59.3322 54.6249 59.2789 54.4649 59.2789 54.2582V50.4782C59.2789 50.2715 59.3322 50.1149 59.4389 50.0082C59.5456 49.9015 59.6956 49.8482 59.8889 49.8482C60.0822 49.8482 60.2322 49.9015 60.3389 50.0082C60.4456 50.1149 60.4989 50.2715 60.4989 50.4782V51.1582L60.3889 50.9082C60.5356 50.5549 60.7622 50.2882 61.0689 50.1082C61.3822 49.9215 61.7356 49.8282 62.1289 49.8282C62.5222 49.8282 62.8456 49.9015 63.0989 50.0482C63.3522 50.1949 63.5422 50.4182 63.6689 50.7182C63.7956 51.0115 63.8589 51.3849 63.8589 51.8382V54.2582C63.8589 54.4649 63.8056 54.6249 63.6989 54.7382C63.5922 54.8449 63.4389 54.8982 63.2389 54.8982C63.0389 54.8982 62.8822 54.8449 62.7689 54.7382C62.6622 54.6249 62.6089 54.4649 62.6089 54.2582V51.8982C62.6089 51.5182 62.5356 51.2415 62.3889 51.0682C62.2489 50.8949 62.0289 50.8082 61.7289 50.8082C61.3622 50.8082 61.0689 50.9249 60.8489 51.1582C60.6356 51.3849 60.5289 51.6882 60.5289 52.0682V54.2582C60.5289 54.6849 60.3189 54.8982 59.8989 54.8982Z" fill="white"/>
<path d="M37.1 44.224C36.596 44.224 36.1853 44.1027 35.868 43.86C35.5693 43.6173 35.3267 43.2347 35.14 42.712L29.288 26.164C29.0827 25.5667 29.12 25.0627 29.4 24.652C29.6987 24.2413 30.1933 24.036 30.884 24.036C31.388 24.036 31.78 24.1573 32.06 24.4C32.34 24.624 32.564 24.988 32.732 25.492L37.772 40.444H36.652L41.916 25.52C42.1027 25.016 42.336 24.6427 42.616 24.4C42.896 24.1573 43.26 24.036 43.708 24.036C44.156 24.036 44.5107 24.1573 44.772 24.4C45.0333 24.6427 45.2573 25.0253 45.444 25.548L50.54 40.444H49.56L54.684 25.492C54.852 25.0067 55.076 24.6427 55.356 24.4C55.636 24.1573 56.0187 24.036 56.504 24.036C57.1013 24.036 57.54 24.2413 57.82 24.652C58.1 25.0627 58.1373 25.5667 57.932 26.164L52.024 42.74C51.8373 43.244 51.5947 43.6173 51.296 43.86C50.9973 44.1027 50.596 44.224 50.092 44.224C49.588 44.224 49.1867 44.1027 48.888 43.86C48.5893 43.6173 48.3467 43.2347 48.16 42.712L43.288 28.824H43.932L39.004 42.74C38.8173 43.244 38.5747 43.6173 38.276 43.86C37.996 44.1027 37.604 44.224 37.1 44.224ZM63.2319 44C62.6159 44 62.1399 43.8413 61.8039 43.524C61.4865 43.188 61.3279 42.712 61.3279 42.096V26.164C61.3279 25.548 61.4865 25.0813 61.8039 24.764C62.1399 24.428 62.6159 24.26 63.2319 24.26H69.9519C71.3332 24.26 72.5092 24.4653 73.4799 24.876C74.4505 25.2867 75.1879 25.8747 75.6919 26.64C76.2145 27.4053 76.4759 28.32 76.4759 29.384C76.4759 30.5787 76.1305 31.5867 75.4399 32.408C74.7492 33.2293 73.8065 33.78 72.6119 34.06V33.64C73.9932 33.8453 75.0665 34.368 75.8319 35.208C76.5972 36.048 76.9799 37.14 76.9799 38.484C76.9799 40.2387 76.3825 41.6013 75.1879 42.572C74.0119 43.524 72.3692 44 70.2599 44H63.2319ZM64.7719 41.284H69.8119C71.0812 41.284 72.0145 41.0413 72.6119 40.556C73.2092 40.052 73.5079 39.3053 73.5079 38.316C73.5079 37.308 73.2092 36.5613 72.6119 36.076C72.0145 35.5907 71.0812 35.348 69.8119 35.348H64.7719V41.284ZM64.7719 32.632H69.3359C70.5679 32.632 71.4825 32.3987 72.0799 31.932C72.6959 31.4467 73.0039 30.7373 73.0039 29.804C73.0039 28.8707 72.6959 28.1707 72.0799 27.704C71.4825 27.2187 70.5679 26.976 69.3359 26.976H64.7719V32.632Z" fill="white"/>
</svg>
