<?xml version="1.0" encoding="utf-8"?>
<!-- Generator: Adobe Illustrator 27.5.0, SVG Export Plug-In . SVG Version: 6.00 Build 0)  -->
<svg version="1.1" xmlns="http://www.w3.org/2000/svg" xmlns:xlink="http://www.w3.org/1999/xlink" x="0px" y="0px"
	 viewBox="0 0 3710 3710" style="enable-background:new 0 0 3710 3710;" xml:space="preserve">
<g id="Background">
	<g>
		<g>
			<rect style="fill:#FFFFFF;" width="3710" height="3710"/>
		</g>
	</g>
</g>
<g id="Illustration">
	<g>
		<linearGradient id="SVGID_1_" gradientUnits="userSpaceOnUse" x1="3611.7612" y1="4080.8618" x2="1118.4349" y2="984.3069">
			<stop  offset="0" style="stop-color:#DAE3FE"/>
			<stop  offset="1" style="stop-color:#E9EFFD"/>
		</linearGradient>
		<path style="fill:url(#SVGID_1_);" d="M2929.811,2856.935c-57.489,60.142-111.884,98.927-154.861,129.57
			C2269.766,3346.704,1672,3241.708,1544.958,3216.066c-187.601-37.864-550.231-111.053-812.405-417.43
			c-396.648-463.522-334.884-1193.788-27.217-1675.846c56.277-88.177,353.549-577.578,957.754-656.063
			c365.658-47.498,791.898,48.3,1100.569,305.281C3411.587,1311.437,3365.461,2401.176,2929.811,2856.935z"/>
		<g style="opacity:0.75;">
			<path style="fill:#91B3FA;" d="M3153.129,1271.826c-217.433,161.331-743.065,664.565-787.947,1782.998
				c0,0,929.883-670.543,888.83-1734.406C3252.048,1269.488,3194.061,1241.456,3153.129,1271.826z"/>
			<path style="opacity:0.54;fill:#FFFFFF;" d="M3082.319,1566.233c-6.28,29.411-13.362,58.148-20.76,87.004
				c-7.396,28.807-15.224,57.481-23.428,86.043c-16.379,57.131-34.112,113.849-53.179,170.112
				c-38.216,112.479-81.315,223.324-130.575,331.402c-6.24,13.471-12.133,27.1-18.661,40.435l-19.219,40.174l-19.942,39.821
				c-3.361,6.616-6.6,13.295-10.063,19.859l-10.41,19.684l-10.41,19.681c-3.447,6.573-6.927,13.127-10.595,19.579l-21.682,38.896
				c-7.237,12.956-14.976,25.63-22.441,38.457l-11.292,19.182c-3.83,6.356-7.822,12.615-11.721,18.928l-23.587,37.757l-24.534,37.15
				c-8.026,12.483-16.706,24.528-25.208,36.688l-12.787,18.215l-6.395,9.106l-6.653,8.921l-26.667,35.638
				c-4.362,5.999-9.083,11.727-13.705,17.528l-13.903,17.376l-13.9,17.373c-4.622,5.798-9.604,11.302-14.388,16.967l-28.981,33.759
				c-0.657,0.763-1.809,0.852-2.572,0.195c-0.756-0.65-0.848-1.786-0.211-2.549l0.043-0.053l28.447-34.083
				c4.695-5.719,9.585-11.275,14.118-17.122l13.623-17.521l13.622-17.522c4.53-5.847,9.156-11.618,13.421-17.667l26.096-35.898
				l6.507-8.983l6.247-9.169l12.497-18.337c8.31-12.236,16.789-24.356,24.617-36.912l23.933-37.361l22.982-37.952
				c3.8-6.342,7.686-12.632,11.414-19.017l10.988-19.271c7.257-12.886,14.791-25.611,21.823-38.622l21.058-39.042
				c3.562-6.478,6.94-13.054,10.284-19.651l10.093-19.75l10.096-19.747c3.358-6.583,6.491-13.282,9.75-19.918l19.308-39.933
				l18.581-40.273c6.316-13.368,11.998-27.027,18.027-40.524c47.553-108.293,88.926-219.243,125.395-331.693
				c18.195-56.246,35.053-112.915,50.544-169.934c7.762-28.503,15.141-57.104,22.088-85.796
				c6.923-28.645,13.609-57.557,19.311-86.182l0.033-0.178c1.265-6.339,7.425-10.453,13.764-9.192
				c6.339,1.261,10.456,7.422,9.192,13.761C3082.346,1566.104,3082.326,1566.2,3082.319,1566.233z"/>
		</g>
		<g style="opacity:0.87;">
			
				<linearGradient id="SVGID_00000170255155775952724380000018226194664674183343_" gradientUnits="userSpaceOnUse" x1="1785.3961" y1="2010.6333" x2="2962.8306" y2="2010.6333">
				<stop  offset="0" style="stop-color:#FF928E"/>
				<stop  offset="1" style="stop-color:#FE7062"/>
			</linearGradient>
			<path style="fill:url(#SVGID_00000170255155775952724380000018226194664674183343_);" d="M2961.113,1036.199
				c7.218-14.418-9.729-27.143-24.473-18.472c-149.719,88.036-526.033,362.068-599.771,925.294
				c-92.515,706.652-315.953,937.105-551.473,1063.346c0,0,286.472-33.987,522.703-266.459
				C2888.098,2169.134,2832.768,1292.553,2961.113,1036.199z"/>
			<path style="opacity:0.47;fill:#FFFFFF;" d="M2809.316,1240.027c-10.496,13.025-19.958,27.255-29.335,41.303
				c-9.149,14.27-18.198,28.599-26.585,43.34c-8.779,14.501-16.491,29.632-24.643,44.486c-7.911,14.993-15.207,30.315-22.837,45.443
				c-29.54,61.06-54.493,124.259-76.558,188.353c-22.52,63.972-40.425,129.459-57.319,195.105l-11.179,49.62l-5.563,24.812
				l-2.78,12.404c-0.858,4.15-1.575,8.333-2.371,12.497l-9.321,50.003c-3.12,16.673-6.141,33.277-9.542,50.165
				c-25.26,134.811-65.068,266.787-118.178,393.076c-26.452,63.176-55.318,125.365-87.463,185.854l-24.646,45.073
				c-8.541,14.847-17.007,29.738-25.749,44.469c-17.581,29.493-35.657,58.366-55.517,86.902c-3.691,5.302-10.984,6.61-16.287,2.919
				c-5.253-3.658-6.587-10.846-3.024-16.135l0.188-0.281c9.254-13.728,18.476-28.051,27.268-42.439
				c8.98-14.313,17.555-28.906,26.175-43.462c8.515-14.623,16.759-29.414,25.076-44.153l23.996-44.763
				c31.6-59.908,60.175-121.4,86.228-183.886l9.684-23.474c3.226-7.825,6.531-15.617,9.396-23.583l17.958-47.49
				c1.482-3.965,3.051-7.897,4.457-11.886l4.081-12.018l8.165-24.032c5.335-16.056,11.216-31.947,15.749-48.25l14.468-48.649
				c1.165-4.064,2.499-8.086,3.529-12.186l3.1-12.299l6.2-24.6l6.207-24.604l3.104-12.302c0.921-4.124,1.71-8.277,2.572-12.414
				l10.139-49.706l20.272-100.375c0.862-4.186,1.647-8.386,2.572-12.563l2.985-12.477l5.973-24.95l12.001-49.874l13.744-49.438
				l6.871-24.713c2.261-8.244,5.084-16.333,7.6-24.505l15.524-48.903c5.454-16.208,11.542-32.207,17.284-48.316
				c23.712-64.15,50.303-127.307,81.487-188.218c8.162-15.042,15.98-30.253,24.412-45.133c8.677-14.748,16.901-29.738,26.202-44.113
				c18.037-29.094,37.186-57.398,59.489-83.749c1.119-1.321,3.1-1.486,4.421-0.367c1.304,1.103,1.482,3.037,0.419,4.358
				L2809.316,1240.027z"/>
		</g>
		<g>
			
				<linearGradient id="SVGID_00000036950023131740566700000011303120141391522955_" gradientUnits="userSpaceOnUse" x1="702.0805" y1="1501.8959" x2="2044.2924" y2="1501.8959">
				<stop  offset="0" style="stop-color:#FF928E"/>
				<stop  offset="1" style="stop-color:#FE7062"/>
			</linearGradient>
			<path style="fill:url(#SVGID_00000036950023131740566700000011303120141391522955_);" d="M2044.292,2543.342
				c0,0-437.032-166.002-549.945-686.001c-109.748-505.426-136.861-1219.735-759.098-1395.846
				c-20.957-5.931-40.039,14.518-30.759,32.972c54.869,109.106,185.306,394.649,220.208,705.691
				C969.25,1597.2,1290.198,2525.779,2044.292,2543.342z"/>
			<path style="opacity:0.47;fill:#FFFFFF;" d="M899.212,631.179l2.298,1.271l1.905,1.141c1.255,0.748,2.47,1.501,3.622,2.257
				c2.374,1.499,4.672,3.038,6.937,4.591c4.54,3.113,8.994,6.278,13.332,9.575c8.756,6.496,17.122,13.406,25.333,20.483
				c16.353,14.215,31.831,29.348,46.533,45.178c14.712,15.825,28.466,32.494,41.508,49.684
				c13.137,17.134,24.937,35.208,36.499,53.404c22.507,36.78,41.851,75.442,57.894,115.391
				c16.059,39.953,28.513,81.263,38.041,123.133c9.505,41.891,15.94,84.396,19.853,127.066l2.483,32.039l1.294,32.088
				c0.475,10.786,0.703,21.107,1.063,31.672l0.492,15.765c0.178,5.256,0.561,10.502,0.832,15.752
				c1.981,42.029,6.088,83.957,11.272,125.739c5.071,41.808,12.18,83.359,20.265,124.708
				c16.379,82.669,38.576,164.222,66.309,243.87c13.712,39.887,29.259,79.12,45.81,117.923
				c16.653,38.771,35.159,76.719,54.797,114.074c39.732,74.438,85.578,145.792,138.727,211.501l10.004,12.289l5.002,6.147
				l5.217,5.959l20.889,23.848l21.751,23.068c3.572,3.902,7.343,7.604,11.133,11.288l11.318,11.107
				c30.395,29.397,62.668,56.92,96.873,81.926c-34.779-24.194-67.749-50.993-98.923-79.76l-11.615-10.875
				c-3.889-3.605-7.762-7.234-11.433-11.064l-22.378-22.642l-21.54-23.451l-5.382-5.867l-5.17-6.055l-10.341-12.11
				c-55.13-64.675-102.426-135.815-143.845-210.029c-20.463-37.259-39.811-75.164-57.306-113.935
				c-4.546-9.614-8.555-19.466-12.86-29.189l-6.349-14.636l-6.019-14.768c-3.955-9.872-8.053-19.691-11.889-29.609l-11.219-29.873
				c-29.08-79.968-52.621-161.977-70.318-245.276c-8.743-41.663-16.508-83.577-22.22-125.805
				c-5.824-42.198-10.565-84.594-13.16-127.165c-0.347-5.319-0.809-10.631-1.063-15.957l-0.72-15.983l-1.456-31.811l-1.492-31.388
				l-2.658-31.293c-4.13-41.646-10.71-83.022-20.249-123.682c-19.093-81.262-50.003-159.735-93.399-230.766
				c-21.959-35.317-46.804-68.84-74.666-99.623c-13.982-15.336-28.704-29.99-44.192-43.707c-7.779-6.81-15.683-13.477-23.821-19.752
				c-4.044-3.181-8.178-6.217-12.322-9.159c-2.08-1.477-4.157-2.919-6.24-4.28c-1.05-0.715-2.077-1.369-3.084-1.994l-1.489-0.928
				l-1.156-0.682l-0.891-0.525c-5.563-3.272-7.419-10.435-4.144-15.996C886.706,630.015,893.692,628.137,899.212,631.179z"/>
		</g>
		<g>
			<path style="fill:#91B3FA;" d="M458.99,900.625c-9.325-16.083,9.5-34.102,27.179-26.138
				c179.526,80.867,634.234,347.308,756.91,1009.743c153.915,831.124,428.365,1070.459,709.966,1183.003
				c0,0-334.643,6.302-624.069-233.352C618.368,2245.476,624.806,1186.582,458.99,900.625z"/>
			<path style="opacity:0.47;fill:#FFFFFF;" d="M653.371,1114.738c28.06,28.605,52.406,59.987,75.389,92.409l8.693,12.104
				c2.823,4.084,5.524,8.247,8.294,12.368l16.518,24.795c10.661,16.749,20.906,33.762,31.345,50.67
				c40.276,68.502,74.999,140.111,106.388,213.043c32.138,72.708,57.649,148.021,82.682,223.377l16.878,57.115l8.439,28.562
				l4.219,14.283l3.711,14.418l14.781,57.692c4.91,19.222,9.938,38.526,14.554,57.55l7.108,28.622l7.752,28.46l3.876,14.227
				l4.177,14.147l8.409,28.272c11.773,37.526,24.095,74.894,37.886,111.743c27.057,73.887,58.534,146.11,92.584,217.054
				c34.403,70.783,71.945,140.074,112.819,207.344c20.344,33.683,41.415,66.94,63.444,99.527
				c10.984,16.317,22.243,32.435,33.673,48.412c11.401,15.924,23.157,31.89,35.089,46.992l0.165,0.211
				c4.008,5.071,3.143,12.427-1.925,16.435c-5.038,3.979-12.335,3.15-16.359-1.829c-25.346-31.392-48.418-63.526-70.988-96.384
				c-22.52-32.802-44.047-66.247-64.85-100.138c-41.478-67.858-79.374-137.862-114.229-209.345
				c-34.69-71.566-65.804-144.895-92.798-219.739c-13.728-37.338-25.977-75.207-37.665-113.232l-8.343-28.651l-4.144-14.332
				l-3.84-14.421l-7.676-28.84l-7.029-29.008l-27.915-115.104l-3.506-14.362l-4.012-14.22l-8.023-28.447l-16.049-56.903
				l-18.116-56.263c-6.075-18.746-11.843-37.605-18.869-56.012l-20.196-55.553c-3.209-9.324-7.099-18.374-10.72-27.536
				l-11.027-27.417c-29.731-72.949-62.816-144.673-101.442-213.393c-9.908-17.016-19.638-34.162-29.781-51.053l-15.739-25.006
				c-2.641-4.16-5.217-8.366-7.911-12.487l-8.303-12.216c-5.603-8.096-10.935-16.399-16.759-24.333l-17.482-23.811
				c-12.071-15.481-24.191-31.21-37.579-45.321l-0.112-0.119c-1.192-1.258-1.142-3.242,0.116-4.437
				C650.218,1113.48,652.176,1113.519,653.371,1114.738z"/>
		</g>
		<rect x="1210.155" y="617.621" style="fill:#7D97F4;" width="1209.986" height="2290.923"/>
		<rect x="1257.461" y="618.719" style="fill:#BDD0FB;" width="1114.873" height="2290.923"/>
		<path style="fill:#7D97F4;" d="M2459.901,703.225H1176.38c-17.26,0-31.251-13.992-31.251-31.251v-78.94
			c0-17.26,13.992-31.251,31.251-31.251h1283.52c17.26,0,31.251,13.992,31.251,31.251v78.94
			C2491.152,689.233,2477.16,703.225,2459.901,703.225z"/>
		<path style="fill:#7D97F4;" d="M2456.52,3084.821H1173c-17.26,0-31.251-13.991-31.251-31.251v-158.557
			c0-17.26,13.992-31.251,31.251-31.251h1283.52c17.26,0,31.251,13.992,31.251,31.251v158.557
			C2487.771,3070.83,2473.779,3084.821,2456.52,3084.821z"/>
		<g>
			
				<linearGradient id="SVGID_00000160180151303168227020000012723171378921752749_" gradientUnits="userSpaceOnUse" x1="1749.179" y1="1719.0203" x2="1957.2303" y2="1719.0203">
				<stop  offset="0" style="stop-color:#4F52FF"/>
				<stop  offset="1" style="stop-color:#4042E2"/>
			</linearGradient>
			<path style="fill:url(#SVGID_00000160180151303168227020000012723171378921752749_);" d="M1957.23,1717.788
				c0,60.092-46.141,109.645-103.401,110.685c-57.641,1.047-104.651-47.402-104.651-108.221c0-60.819,47.01-110.382,104.651-110.7
				C1911.089,1609.236,1957.23,1657.696,1957.23,1717.788z"/>
			
				<linearGradient id="SVGID_00000165231988222174905930000013247340014587722914_" gradientUnits="userSpaceOnUse" x1="1388.5869" y1="1713.2123" x2="2295.304" y2="1713.2123">
				<stop  offset="0" style="stop-color:#4F52FF"/>
				<stop  offset="1" style="stop-color:#4042E2"/>
			</linearGradient>
			<path style="fill:url(#SVGID_00000165231988222174905930000013247340014587722914_);" d="M2284.716,1975.685
				c-25.988,49.286-95.726,67.188-197.237,50.13c-96.851-16.274-213.973-62.178-330.134-129.808
				c-117.733-68.546-220.517-151.264-288.585-232.68c-72.753-87.02-97.182-163.42-68.397-214.439
				c28.693-50.854,104.8-66.784,213.331-45.192c101.138,20.122,220.412,70.135,335.554,140.274
				c113.622,69.214,210.378,150.222,273.243,228.356C2288.646,1854.548,2310.625,1926.551,2284.716,1975.685z M1422.612,1485.387
				c-19.9,35.357,3.728,97.573,64.532,170.244c65.361,78.12,164.666,157.951,278.826,224.553
				c112.682,65.74,225.799,110.386,318.855,126.235c85.055,14.486,143.851,3.064,161.944-31.172
				c18.053-34.161-3.393-92.98-59.095-161.782c-60.724-75.008-154.698-153.074-265.369-220.069
				c-112.111-67.865-227.642-116.083-325.01-135.245C1506.394,1440.259,1442.467,1450.112,1422.612,1485.387z"/>
			
				<linearGradient id="SVGID_00000027574340163659514530000002752495351721866881_" gradientUnits="userSpaceOnUse" x1="2459.7185" y1="694.0497" x2="2256.8474" y2="1028.7871">
				<stop  offset="0" style="stop-color:#4F52FF"/>
				<stop  offset="1" style="stop-color:#4042E2"/>
			</linearGradient>
			<path style="fill:url(#SVGID_00000027574340163659514530000002752495351721866881_);" d="M2284.716,1975.685
				c-25.988,49.286-95.726,67.188-197.237,50.13c-96.851-16.274-213.973-62.178-330.134-129.808
				c-117.733-68.546-220.517-151.264-288.585-232.68c-72.753-87.02-97.182-163.42-68.397-214.439
				c28.693-50.854,104.8-66.784,213.331-45.192c101.138,20.122,220.412,70.135,335.554,140.274
				c113.622,69.214,210.378,150.222,273.243,228.356C2288.646,1854.548,2310.625,1926.551,2284.716,1975.685z M1422.612,1485.387
				c-19.9,35.357,3.728,97.573,64.532,170.244c65.361,78.12,164.666,157.951,278.826,224.553
				c112.682,65.74,225.799,110.386,318.855,126.235c85.055,14.486,143.851,3.064,161.944-31.172
				c18.053-34.161-3.393-92.98-59.095-161.782c-60.724-75.008-154.698-153.074-265.369-220.069
				c-112.111-67.865-227.642-116.083-325.01-135.245C1506.394,1440.259,1442.467,1450.112,1422.612,1485.387z"/>
			
				<linearGradient id="SVGID_00000142177028051959587170000015482783912851801252_" gradientUnits="userSpaceOnUse" x1="2076.5229" y1="2081.4014" x2="1559.2788" y2="1295.3933">
				<stop  offset="0" style="stop-color:#4F52FF"/>
				<stop  offset="1" style="stop-color:#4042E2"/>
			</linearGradient>
			<path style="fill:url(#SVGID_00000142177028051959587170000015482783912851801252_);" d="M1400.363,1999.883
				c-28.786-50.338-4.356-127.317,68.399-216.061c68.068-83.029,170.852-168.182,288.585-239.517
				c116.161-70.383,233.283-119.061,330.134-137.63c101.509-19.462,171.247-3.212,197.235,45.458
				c25.908,48.521,3.93,121.044-62.223,204.833c-62.865,79.624-159.621,162.924-273.243,234.83
				c-115.142,72.868-234.416,125.707-335.554,148.224C1505.163,2064.185,1429.055,2050.058,1400.363,1999.883z M2246.768,1453.469
				c-18.093-33.807-76.886-43.838-161.944-27.335c-93.054,18.052-206.171,65.378-318.853,133.788
				c-114.161,69.308-213.466,151.491-278.829,231.161c-60.801,74.111-84.432,136.888-64.531,171.773
				c19.854,34.805,83.784,43.142,174.683,23.097c97.37-21.47,212.9-72.425,325.012-142.947
				c110.672-69.616,204.645-149.909,265.367-226.354C2243.377,1546.528,2264.822,1487.203,2246.768,1453.469z"/>
			
				<linearGradient id="SVGID_00000102507213251555412310000017439665763083981492_" gradientUnits="userSpaceOnUse" x1="1794.8354" y1="2037.6802" x2="2038.2438" y2="673.5799">
				<stop  offset="0" style="stop-color:#4F52FF"/>
				<stop  offset="1" style="stop-color:#4042E2"/>
			</linearGradient>
			<path style="fill:url(#SVGID_00000102507213251555412310000017439665763083981492_);" d="M1712.852,2096.462
				c-34.186-99.716-53.071-233.055-53.071-375.151s18.885-275.883,53.071-376.409c36.103-106.164,86.224-163.863,140.977-162.813
				c54.408,1.043,103.62,59.945,138.719,165.524c32.971,99.175,51.075,230.171,51.075,369.15
				c0,138.98-18.104,270.404-51.075,370.361c-35.099,106.413-84.311,166.481-138.719,168.813
				C1799.076,2258.285,1748.955,2201.773,1712.852,2096.462z M1765.761,1357.834c-32.551,96.355-50.528,225.307-50.528,362.819
				s17.977,266.039,50.528,361.625c29.954,87.967,68.869,137.397,106.714,135.856c37.683-1.535,76.085-53.665,105.416-142.786
				c31.644-96.151,49.02-223.331,49.02-358.387c0-135.056-17.376-261.824-49.02-357.223
				c-29.33-88.428-67.733-139.647-105.416-140.289C1834.63,1218.806,1795.714,1269.155,1765.761,1357.834z"/>
		</g>
		<g>
			<path style="opacity:0.59;fill:#FFFFFF;" d="M3034.158,3211.489H2011.384c-11.276,0-20.417-9.141-20.417-20.417v-997.985
				c0-11.276,9.141-20.418,20.417-20.418h1022.773c11.276,0,20.417,9.141,20.417,20.418v997.985
				C3054.575,3202.348,3045.434,3211.489,3034.158,3211.489z"/>
			<g>
				<g>
					<rect x="2044.069" y="2219.072" style="fill:#91B3FA;" width="152.024" height="22.342"/>
					<rect x="2240.815" y="2219.072" style="fill:#91B3FA;" width="303.736" height="22.342"/>
					<rect x="2589.273" y="2219.072" style="fill:#91B3FA;" width="407.476" height="22.342"/>
					<rect x="2044.069" y="2279.26" style="fill:#91B3FA;" width="152.024" height="22.342"/>
					<rect x="2236.073" y="2279.26" style="fill:#91B3FA;" width="151.868" height="22.342"/>
					<rect x="2755.278" y="2279.26" style="fill:#91B3FA;" width="236.729" height="22.342"/>
					<rect x="2420.561" y="2279.26" style="fill:#91B3FA;" width="305.94" height="22.342"/>
					<rect x="2039.327" y="2332.878" style="fill:#91B3FA;" width="152.024" height="22.342"/>
					<rect x="2236.073" y="2332.878" style="fill:#91B3FA;" width="253.348" height="22.342"/>
					<rect x="2818.48" y="2332.878" style="fill:#91B3FA;" width="173.528" height="22.342"/>
					<rect x="2520.409" y="2332.878" style="fill:#91B3FA;" width="275.936" height="22.342"/>
				</g>
				<g>
					<rect x="2043.489" y="2384.339" style="fill:#91B3FA;" width="152.024" height="22.342"/>
					<rect x="2240.235" y="2384.339" style="fill:#91B3FA;" width="303.736" height="22.342"/>
					<rect x="2588.693" y="2384.339" style="fill:#91B3FA;" width="407.476" height="22.342"/>
					<rect x="2043.489" y="2444.527" style="fill:#91B3FA;" width="152.024" height="22.342"/>
					<rect x="2235.493" y="2444.527" style="fill:#91B3FA;" width="151.868" height="22.342"/>
					<rect x="2754.698" y="2444.527" style="fill:#91B3FA;" width="236.729" height="22.342"/>
					<rect x="2419.98" y="2444.527" style="fill:#91B3FA;" width="305.94" height="22.342"/>
					<rect x="2038.747" y="2498.145" style="fill:#91B3FA;" width="152.024" height="22.342"/>
					<rect x="2235.493" y="2498.145" style="fill:#91B3FA;" width="253.348" height="22.342"/>
					<rect x="2817.899" y="2498.145" style="fill:#91B3FA;" width="173.528" height="22.342"/>
					<rect x="2519.829" y="2498.145" style="fill:#91B3FA;" width="275.937" height="22.342"/>
				</g>
				<g>
					<rect x="2040.538" y="2545.787" style="fill:#91B3FA;" width="152.024" height="22.342"/>
					<rect x="2237.284" y="2545.787" style="fill:#91B3FA;" width="303.736" height="22.342"/>
					<rect x="2585.741" y="2545.787" style="fill:#91B3FA;" width="407.477" height="22.342"/>
					<rect x="2040.538" y="2605.975" style="fill:#91B3FA;" width="152.024" height="22.342"/>
					<rect x="2232.542" y="2605.975" style="fill:#91B3FA;" width="151.868" height="22.342"/>
					<rect x="2751.747" y="2605.975" style="fill:#91B3FA;" width="236.729" height="22.342"/>
					<rect x="2417.029" y="2605.975" style="fill:#91B3FA;" width="305.94" height="22.342"/>
					<rect x="2035.796" y="2659.594" style="fill:#91B3FA;" width="152.024" height="22.342"/>
					<rect x="2232.542" y="2659.594" style="fill:#91B3FA;" width="253.348" height="22.342"/>
					<rect x="2814.948" y="2659.594" style="fill:#91B3FA;" width="173.528" height="22.342"/>
					<rect x="2516.878" y="2659.594" style="fill:#91B3FA;" width="275.937" height="22.342"/>
				</g>
				<g>
					<rect x="2041.433" y="2711.921" style="fill:#91B3FA;" width="152.024" height="22.342"/>
					<rect x="2238.179" y="2711.921" style="fill:#91B3FA;" width="303.736" height="22.342"/>
					<rect x="2586.637" y="2711.921" style="fill:#91B3FA;" width="407.477" height="22.342"/>
					<rect x="2041.433" y="2772.109" style="fill:#91B3FA;" width="152.024" height="22.342"/>
					<rect x="2233.437" y="2772.109" style="fill:#91B3FA;" width="151.868" height="22.342"/>
					<rect x="2752.642" y="2772.109" style="fill:#91B3FA;" width="236.729" height="22.342"/>
					<rect x="2417.925" y="2772.109" style="fill:#91B3FA;" width="305.94" height="22.342"/>
					<rect x="2036.691" y="2825.728" style="fill:#91B3FA;" width="152.024" height="22.342"/>
					<rect x="2233.437" y="2825.728" style="fill:#91B3FA;" width="253.348" height="22.342"/>
					<rect x="2815.844" y="2825.728" style="fill:#91B3FA;" width="173.528" height="22.342"/>
					<rect x="2517.773" y="2825.728" style="fill:#91B3FA;" width="275.936" height="22.342"/>
				</g>
				<g>
					<rect x="2038.482" y="2873.37" style="fill:#91B3FA;" width="152.024" height="22.342"/>
					<rect x="2235.228" y="2873.37" style="fill:#91B3FA;" width="303.736" height="22.342"/>
					<rect x="2583.686" y="2873.37" style="fill:#91B3FA;" width="407.477" height="22.342"/>
					<rect x="2038.482" y="2933.558" style="fill:#91B3FA;" width="152.024" height="22.342"/>
					<rect x="2230.486" y="2933.558" style="fill:#91B3FA;" width="151.868" height="22.342"/>
					<rect x="2749.691" y="2933.558" style="fill:#91B3FA;" width="236.729" height="22.342"/>
					<rect x="2414.973" y="2933.558" style="fill:#91B3FA;" width="305.94" height="22.342"/>
					<rect x="2033.74" y="2987.176" style="fill:#91B3FA;" width="152.024" height="22.342"/>
					<rect x="2230.486" y="2987.176" style="fill:#91B3FA;" width="253.348" height="22.342"/>
					<rect x="2812.893" y="2987.176" style="fill:#91B3FA;" width="173.527" height="22.342"/>
					<rect x="2514.822" y="2987.176" style="fill:#91B3FA;" width="275.936" height="22.342"/>
				</g>
				<g>
					<rect x="2040.853" y="3039.478" style="fill:#91B3FA;" width="152.024" height="22.342"/>
					<rect x="2237.599" y="3039.478" style="fill:#91B3FA;" width="303.736" height="22.342"/>
					<rect x="2586.057" y="3039.478" style="fill:#91B3FA;" width="407.476" height="22.342"/>
					<rect x="2040.853" y="3099.666" style="fill:#91B3FA;" width="152.024" height="22.342"/>
					<rect x="2232.857" y="3099.666" style="fill:#91B3FA;" width="151.868" height="22.342"/>
					<rect x="2752.062" y="3099.666" style="fill:#91B3FA;" width="236.729" height="22.342"/>
					<rect x="2417.344" y="3099.666" style="fill:#91B3FA;" width="305.94" height="22.342"/>
					<rect x="2036.111" y="3153.284" style="fill:#91B3FA;" width="152.024" height="22.342"/>
					<rect x="2232.857" y="3153.284" style="fill:#91B3FA;" width="253.348" height="22.342"/>
					<rect x="2815.264" y="3153.284" style="fill:#91B3FA;" width="173.528" height="22.342"/>
					<rect x="2517.193" y="3153.284" style="fill:#91B3FA;" width="275.936" height="22.342"/>
				</g>
			</g>
		</g>
		<g>
			<path style="fill:#7D97F4;" d="M1014.905,3181.874c-32.394,2.8-88.615,7.349-132.937,9.299
				c-26.643,1.173-41.982-1.436-50.816-4.973c0.015,0.996,0.043,1.937,0.082,2.811c0.209,4.664,3.999,8.395,8.71,8.658
				c83.749,4.674,150.354,1.618,174.066,0.175c4.903-0.299,7.825-5.627,5.318-9.807
				C1018.074,3185.947,1016.554,3183.899,1014.905,3181.874z"/>
			
				<linearGradient id="SVGID_00000039133146821225846490000000801964047757967235_" gradientUnits="userSpaceOnUse" x1="831.1408" y1="3153.9604" x2="1014.9046" y2="3153.9604">
				<stop  offset="0" style="stop-color:#09005D"/>
				<stop  offset="1" style="stop-color:#1A0F91"/>
			</linearGradient>
			<path style="fill:url(#SVGID_00000039133146821225846490000000801964047757967235_);" d="M881.967,3191.173
				c44.322-1.95,100.543-6.499,132.937-9.299c-31.849-39.075-132.937-65.411-132.937-65.411h-28.551
				c-19.637,28.306-22.48,55.255-22.265,69.737C839.986,3189.737,855.324,3192.346,881.967,3191.173z"/>
			
				<linearGradient id="SVGID_00000060005523408232874660000004360619496102033547_" gradientUnits="userSpaceOnUse" x1="848.6093" y1="3102.22" x2="901.8727" y2="3102.22">
				<stop  offset="0" style="stop-color:#FEBBBA"/>
				<stop  offset="1" style="stop-color:#FF928E"/>
			</linearGradient>
			<path style="fill:url(#SVGID_00000060005523408232874660000004360619496102033547_);" d="M848.609,3069.853l2.672,52.871
				c0.289,5.725,4.575,10.537,10.309,11.356c5.705,0.816,13.345,0.92,21.447-1.777c4.984-1.659,8.685-5.859,9.604-10.981
				l9.232-51.468H848.609z"/>
			<g>
				<path style="fill:#7D97F4;" d="M517.242,3242.865c-14.048-2.532-20.404-11.964-23.069-22.047
					c-0.018,0.091-0.035,0.181-0.053,0.271c-2.066,10.636,2.725,21.66,12.303,26.902c11.578,6.336,24.237,7.416,34.064,6.893
					c10.544-0.562,20.222-6.201,25.541-15.226l0.08-0.136C555.526,3246.291,540.67,3247.088,517.242,3242.865z"/>
				
					<linearGradient id="SVGID_00000096752676571541266970000012881527220428343466_" gradientUnits="userSpaceOnUse" x1="494.1736" y1="3165.7993" x2="600.5357" y2="3165.7993">
					<stop  offset="0" style="stop-color:#09005D"/>
					<stop  offset="1" style="stop-color:#1A0F91"/>
				</linearGradient>
				<path style="fill:url(#SVGID_00000096752676571541266970000012881527220428343466_);" d="M583.476,3086.143h-23.545
					c-35.864-0.947-58.385,96.816-65.757,134.676c2.665,10.083,9.021,19.514,23.069,22.047c23.427,4.223,38.284,3.426,48.867-3.342
					c19.375-32.952,28.981-81.215,33.599-109.381C604.961,3098.108,583.476,3086.143,583.476,3086.143z"/>
			</g>
			
				<linearGradient id="SVGID_00000096740349202604015620000011699541868573814461_" gradientUnits="userSpaceOnUse" x1="549.4589" y1="3074.4453" x2="613.1142" y2="3074.4453">
				<stop  offset="0" style="stop-color:#FEBBBA"/>
				<stop  offset="1" style="stop-color:#FF928E"/>
			</linearGradient>
			<path style="fill:url(#SVGID_00000096740349202604015620000011699541868573814461_);" d="M562.957,3037.069l-13.075,52
				c-1.603,6.376,1.449,12.971,7.343,15.996c7.314,3.753,17.612,7.698,27.075,6.556c4.451-0.537,8.148-3.672,9.618-7.862
				l19.195-54.71L562.957,3037.069z"/>
			
				<linearGradient id="SVGID_00000132065214638299813730000004122717095283608461_" gradientUnits="userSpaceOnUse" x1="1024.0885" y1="1809.0243" x2="740.112" y2="3026.0686">
				<stop  offset="0" style="stop-color:#4F52FF"/>
				<stop  offset="1" style="stop-color:#4042E2"/>
			</linearGradient>
			<path style="fill:url(#SVGID_00000132065214638299813730000004122717095283608461_);" d="M1022.88,2352.19
				c0,0-116.838,730.338-114.914,734.352c0,0-32.27,14.667-67.449,1.869c0,0,10.565-390.418,35.323-540.113
				c0,0-199.403,348.957-262.726,522.835c0,0-33.027-3.938-60.365-21.93c0,0,214.702-628.106,271.981-711.767L1022.88,2352.19z"/>
			
				<linearGradient id="SVGID_00000122713317643833007430000000290297358941603500_" gradientUnits="userSpaceOnUse" x1="918.406" y1="1813.778" x2="918.406" y2="2528.7913">
				<stop  offset="0" style="stop-color:#4F52FF"/>
				<stop  offset="1" style="stop-color:#4042E2"/>
			</linearGradient>
			<path style="fill:url(#SVGID_00000122713317643833007430000000290297358941603500_);" d="M880.505,2544.496
				c-0.626,0-1.259-0.167-1.827-0.525c-1.617-1.013-2.105-3.142-1.095-4.755l43.662-69.74c0.505-0.803,1.315-1.367,2.243-1.554
				l32.132-6.467c1.879-0.371,3.689,0.84,4.067,2.702c0.374,1.869-0.836,3.689-2.702,4.066l-30.676,6.172l-42.875,68.481
				C882.778,2543.922,881.653,2544.496,880.505,2544.496z"/>
			
				<linearGradient id="SVGID_00000174578108829681433010000014559928548013355410_" gradientUnits="userSpaceOnUse" x1="1425.0084" y1="1733.614" x2="1172.8978" y2="2061.6028">
				<stop  offset="0" style="stop-color:#FEBBBA"/>
				<stop  offset="1" style="stop-color:#FF928E"/>
			</linearGradient>
			<path style="fill:url(#SVGID_00000174578108829681433010000014559928548013355410_);" d="M1559.045,1637.031
				c0,0-78.84,17.389-126.793,39.529c-9.524,4.397-17.121,12.086-21.447,21.563c-14.342,31.416-57.25,110.195-140.464,147.79
				c11.983,15.906,31.279,48.991,39.685,104.6c49.979-37.199,93.126-99.322,113.842-201.206c0,0,15.774,8.575,35.452-0.982
				c10.396-5.05,22.4-12.211,31.411-17.844c8.978-5.612,15.665-14.337,18.263-24.526c3.43-13.454,1.41-25.285,1.41-37.977
				l40.525-12.556C1550.928,1655.422,1563.11,1650.824,1559.045,1637.031z"/>
			
				<linearGradient id="SVGID_00000082352898032344017410000002642854815520627096_" gradientUnits="userSpaceOnUse" x1="1354.9364" y1="1372.5997" x2="1165.6086" y2="1663.3529">
				<stop  offset="0" style="stop-color:#E1473D"/>
				<stop  offset="1" style="stop-color:#E9605A"/>
			</linearGradient>
			<path style="fill:url(#SVGID_00000082352898032344017410000002642854815520627096_);" d="M1310.025,1950.512
				c-8.406-55.609-27.701-88.694-39.685-104.6c-51.694,23.355-118.937,30.821-204.565,1.15c-7.893-2.735-16.126-4.336-24.474-4.826
				c-45.584-2.673-195.799-7.55-320.097,33.516c-26.16,8.643-47.348,27.981-58.267,53.039
				c-33.624,77.163-88.061,252.89,63.062,341.607c11.611-28.826,25.012-51.997,36.471-69.021
				c-24.337-41.05-31.545-97.118,11.642-170.13c31.491,85.033,46.264,209.105,49.352,264.014
				c1.016,18.078-2.155,36.122-9.248,52.813l-0.774,1.82c-1.518,3.572,0.571,7.676,4.39,8.534
				c85.077,19.111,173.562,13.918,199.999,11.735c4.719-0.39,8.64-3.766,9.723-8.328c41.37-174.318,41.465-293.226,31.336-368.393
				C1097.589,2002.093,1215.927,2020.547,1310.025,1950.512z"/>
			
				<linearGradient id="SVGID_00000143615138452258817890000000532839521827292075_" gradientUnits="userSpaceOnUse" x1="1010.7044" y1="2004.4335" x2="1504.3079" y2="1064.5604">
				<stop  offset="0" style="stop-color:#E1473D"/>
				<stop  offset="0.2747" style="stop-color:#E34E45"/>
				<stop  offset="1" style="stop-color:#E9605A"/>
			</linearGradient>
			<path style="fill:url(#SVGID_00000143615138452258817890000000532839521827292075_);" d="M1059.057,1998.128
				c-1.705,0-3.188-1.263-3.417-2.997c-9.717-73.394-29.502-105.424-29.699-105.739c-1.017-1.61-0.538-3.742,1.072-4.762
				c1.604-1.01,3.735-0.541,4.755,1.066c0.846,1.328,20.769,33.401,30.712,108.53c0.249,1.889-1.079,3.624-2.968,3.873
				C1059.359,1998.119,1059.208,1998.128,1059.057,1998.128z"/>
			
				<linearGradient id="SVGID_00000001651087236925259670000015521465620178701999_" gradientUnits="userSpaceOnUse" x1="863.0598" y1="1945.5979" x2="890.6411" y2="1800.7964">
				<stop  offset="0" style="stop-color:#FEBBBA"/>
				<stop  offset="1" style="stop-color:#FF928E"/>
			</linearGradient>
			<path style="fill:url(#SVGID_00000001651087236925259670000015521465620178701999_);" d="M849.103,1740.689
				c0,0-8.607,91-16.185,117.918c-1.15,4.084,0.625,8.39,4.335,10.51c12.861,7.349,43.708,19.335,85.903-1.344
				c6.836-3.35,10.945-10.475,10.626-18.016l-3.718-87.936L849.103,1740.689z"/>
			<g>
				
					<linearGradient id="SVGID_00000113320157900185991130000017631539773622908569_" gradientUnits="userSpaceOnUse" x1="937.6908" y1="1679.9327" x2="780.3226" y2="1800.3434">
					<stop  offset="0" style="stop-color:#FEBBBA"/>
					<stop  offset="1" style="stop-color:#FF928E"/>
				</linearGradient>
				<path style="fill:url(#SVGID_00000113320157900185991130000017631539773622908569_);" d="M931.92,1624.271
					c0,0,27.528,63.236,29.377,96.427c1.849,33.191,9.001,54.727-29.377,61.411c-38.377,6.684-70.706-12.434-88.221-45.496
					c0,0-27.442-50.944-21.286-71.808C828.569,1643.942,931.92,1624.271,931.92,1624.271z"/>
				
					<linearGradient id="SVGID_00000011720301797216243590000012183730356269335446_" gradientUnits="userSpaceOnUse" x1="826.9106" y1="1584.594" x2="973.4741" y2="1773.2942">
					<stop  offset="0" style="stop-color:#09005D"/>
					<stop  offset="1" style="stop-color:#1A0F91"/>
				</linearGradient>
				<path style="fill:url(#SVGID_00000011720301797216243590000012183730356269335446_);" d="M856.813,1712.842l2.185-0.963
					c2.781-1.226,3.971-4.536,2.574-7.236c-5.412-10.456-15.962-34.417-2.333-40.007c17.564-7.204,87.139-21.392,102.15-46.079
					c14.427-23.727,1.644-54.354-17.567-63.065c-1.286-0.583-2.801-0.12-3.461,1.128l-1.601,3.029
					c-1.096,2.073-4.159,1.759-4.811-0.494c-0.626-2.163-3.503-2.583-4.696-0.673c-4.614,7.386-17.072,19.359-50.385,25.508
					c-47.345,8.738-78.646,27.897-79.426,60.613c-0.049,2.079-2.26,3.234-4.036,2.152c-3.496-2.13-9.09-3.13-16.566,3.157
					c-13.002,10.933-7.681,39.294,20.822,62.623c1.354,1.108,1.343,3.222-0.123,4.177c-5.168,3.364-12.871,11.368,7.089,22.037
					c20.645,11.036,36.062,10.131,41.998,9.151c1.477-0.244,2.429-1.673,2.107-3.135l-6.336-28.754
					c-0.359-1.627,0.88-3.169,2.547-3.169H856.813z"/>
				
					<linearGradient id="SVGID_00000095314082145239907120000013318928018956815778_" gradientUnits="userSpaceOnUse" x1="918.1711" y1="1654.4219" x2="760.8029" y2="1774.8325">
					<stop  offset="0" style="stop-color:#FEBBBA"/>
					<stop  offset="1" style="stop-color:#FF928E"/>
				</linearGradient>
				<path style="fill:url(#SVGID_00000095314082145239907120000013318928018956815778_);" d="M858.005,1718.91
					c0,0-10.502-40.394-28.612-29.068c-18.111,11.326,9.398,45.26,23.958,46.772L858.005,1718.91z"/>
			</g>
			
				<linearGradient id="SVGID_00000106854687858644426240000014417028568002068623_" gradientUnits="userSpaceOnUse" x1="1559.3285" y1="1328.2036" x2="1491.7114" y2="1588.5291">
				<stop  offset="0" style="stop-color:#FEBBBA"/>
				<stop  offset="1" style="stop-color:#FF928E"/>
			</linearGradient>
			<path style="fill:url(#SVGID_00000106854687858644426240000014417028568002068623_);" d="M1444.893,1739.909
				c-0.764,0-1.535-0.253-2.174-0.774c-1.479-1.2-1.702-3.375-0.498-4.854c2.981-3.67,29.44-36.018,39.632-41.773
				c3.709-2.096,5.919-4.26,6.388-6.257c0.226-0.954,0.075-2.027-0.462-3.247l-31.086,6.231l-17.614,15.112
				c-1.44,1.243-3.624,1.079-4.863-0.371c-1.243-1.446-1.076-3.624,0.371-4.867l18.296-15.702c0.449-0.384,0.987-0.646,1.568-0.764
				l34.414-6.897c1.381-0.279,2.765,0.302,3.542,1.456c2.522,3.742,3.358,7.221,2.551,10.632c-0.951,4.03-4.125,7.526-9.71,10.681
				c-7.667,4.332-29.794,30.43-37.674,40.121C1446.893,1739.476,1445.896,1739.909,1444.893,1739.909z"/>
			
				<linearGradient id="SVGID_00000055687115387903756810000012833862353121852313_" gradientUnits="userSpaceOnUse" x1="1010.4359" y1="2048.4646" x2="900.2902" y2="2213.6829">
				<stop  offset="0" style="stop-color:#FEBBBA"/>
				<stop  offset="1" style="stop-color:#FF928E"/>
			</linearGradient>
			<path style="fill:url(#SVGID_00000055687115387903756810000012833862353121852313_);" d="M856.669,2314.133l121.678,1.506
				l-42.586-40.086c-10.585-9.964-26.741-11.578-38.96-3.653c-7.154,4.64-14.912,10.939-21.634,19.279
				c0,0-75.903-27.739-112.698-89.802c-11.459,17.024-24.86,40.195-36.471,69.021
				C758.984,2289.762,801.743,2304.989,856.669,2314.133z"/>
			<g>
				<g>
					
						<linearGradient id="SVGID_00000176759964642747561180000000082165081902515898_" gradientUnits="userSpaceOnUse" x1="11892.7344" y1="2095.5803" x2="12043.1045" y2="2722.124" gradientTransform="matrix(1 0 0 1 -10920.0752 0)">
						<stop  offset="0" style="stop-color:#09005D"/>
						<stop  offset="1" style="stop-color:#1A0F91"/>
					</linearGradient>
					<path style="fill:url(#SVGID_00000176759964642747561180000000082165081902515898_);" d="M860.339,2353.152l63.948-223.323
						c0.726-2.535,2.889-4.384,5.508-4.689c11.586-1.352,45.16-5.147,83.923-8.426c46.692-3.95,100.915-7.149,133.316-4.427
						c4.606,0.387,7.39,5.259,5.341,9.403c-18.425,37.278-94.217,188.913-132.171,238.587c-1.258,1.646-3.202,2.608-5.273,2.588
						l-148.372-1.38C862.243,2361.445,859.151,2357.303,860.339,2353.152z"/>
					
						<linearGradient id="SVGID_00000161596300260564093850000004911801855170756526_" gradientUnits="userSpaceOnUse" x1="11786.3154" y1="2274.8577" x2="11871.5117" y2="2274.8577" gradientTransform="matrix(1 0 0 1 -10920.0752 0)">
						<stop  offset="0" style="stop-color:#FEBBBA"/>
						<stop  offset="1" style="stop-color:#FF928E"/>
					</linearGradient>
					<path style="fill:url(#SVGID_00000161596300260564093850000004911801855170756526_);" d="M872.409,2312.721
						c0,0-8.908-36.63-5.315-49.625c3.593-12.996,10.556-29.704,33.761-25.991c23.207,3.713,50.581,13.489,50.581,13.489
						s-1.383,16.927-19.02,11.466l10.937,8.463c0,0-1.563,13.553-16.461,6.313l10.172,11.223c0,0-6.398,11.132-17.359,3.992
						C908.746,2284.909,903.492,2317.132,872.409,2312.721z"/>
				</g>
				<path style="fill:#7D97F4;" d="M1002.693,2186.761c0,10.367,8.404,18.771,18.772,18.771c10.367,0,18.771-8.404,18.771-18.771
					c0-10.368-8.404-18.772-18.771-18.772C1011.097,2167.99,1002.693,2176.393,1002.693,2186.761z"/>
				<path style="fill:#91B3FA;" d="M924.76,2202.514l13.021-44.166c1.6-5.424,5.962-9.495,11.382-10.627
					c40.806-8.516,152.502-10.32,153.625-10.338l-0.075-4.99c-4.608,0.07-113.299,1.83-154.568,10.442
					c-7.224,1.508-13.028,6.912-15.148,14.101l-13.021,44.167L924.76,2202.514z"/>
			</g>
		</g>
		<g>
			<g>
				<g style="opacity:0.3;">
					<path style="fill:#91B3FA;" d="M2487.434,930.112c-4.304,0.457-8.347-2.404-9.269-6.73c-2.019-9.461-3.655-19.151-4.866-28.799
						c-0.589-4.694,2.738-8.977,7.43-9.565c0.057-0.006,0.112-0.012,0.166-0.018c4.627-0.491,8.817,2.812,9.398,7.449
						c1.149,9.166,2.705,18.37,4.621,27.358c0.988,4.625-1.963,9.177-6.59,10.163
						C2488.029,930.036,2487.731,930.081,2487.434,930.112z M2480.108,855.864c-0.333,0.035-0.673,0.051-1.016,0.048
						c-4.729-0.056-8.519-3.937-8.462-8.666c0.117-9.714,0.651-19.521,1.587-29.143c0.458-4.708,4.626-8.141,9.353-7.698
						c4.708,0.459,8.152,4.648,7.694,9.353c-0.889,9.147-1.396,18.462-1.506,27.695
						C2487.705,851.838,2484.364,855.412,2480.108,855.864z M2489.311,781.849c-0.948,0.101-1.93,0.043-2.91-0.192
						c-4.597-1.11-7.428-5.735-6.32-10.333c2.27-9.425,4.979-18.87,8.053-28.07c1.502-4.486,6.354-6.902,10.837-5.41
						c4.485,1.499,6.908,6.352,5.409,10.837c-2.919,8.737-5.491,17.703-7.648,26.655
						C2495.862,778.953,2492.811,781.477,2489.311,781.849z M2514.84,711.735c-1.567,0.166-3.198-0.098-4.713-0.852
						c-4.234-2.107-5.957-7.25-3.85-11.483c4.326-8.685,9.078-17.286,14.125-25.567c2.463-4.033,7.73-5.312,11.771-2.854
						c4.038,2.461,5.315,7.732,2.854,11.771c-4.794,7.863-9.309,16.033-13.416,24.287
						C2520.256,709.754,2517.653,711.437,2514.84,711.735z M2555.362,649.077c-2.198,0.233-4.483-0.379-6.327-1.889
						c-3.662-2.995-4.201-8.391-1.205-12.05c6.128-7.49,12.665-14.824,19.427-21.793c3.291-3.397,8.714-3.482,12.11-0.186
						c3.394,3.293,3.477,8.714,0.184,12.111c-6.429,6.624-12.641,13.594-18.465,20.712
						C2559.599,647.799,2557.524,648.847,2555.362,649.077z M2608.732,596.946c-2.846,0.302-5.778-0.827-7.667-3.25
						c-2.907-3.732-2.24-9.111,1.489-12.02c7.645-5.958,15.643-11.665,23.769-16.955c3.966-2.581,9.27-1.458,11.85,2.506
						c2.58,3.961,1.458,9.268-2.505,11.849c-7.722,5.028-15.319,10.447-22.584,16.109
						C2611.777,596.206,2610.267,596.783,2608.732,596.946z M2918.646,543.542c-1.179,0.125-2.401,0.006-3.599-0.392
						c-8.732-2.901-17.708-5.46-26.679-7.603c-4.6-1.099-7.438-5.72-6.338-10.318c1.098-4.601,5.718-7.44,10.319-6.34
						c9.447,2.257,18.902,4.951,28.097,8.005c4.49,1.491,6.919,6.34,5.427,10.828
						C2924.781,541.014,2921.883,543.198,2918.646,543.542z M2672.286,557.964c-3.533,0.375-7.07-1.49-8.66-4.887
						c-2.006-4.285-0.158-9.383,4.125-11.388c8.78-4.111,17.845-7.889,26.945-11.23c4.446-1.609,9.362,0.645,10.992,5.087
						c1.63,4.439-0.648,9.361-5.089,10.993c-8.642,3.171-17.25,6.76-25.588,10.663
						C2674.126,557.614,2673.206,557.867,2672.286,557.964z M2845.646,528.153c-0.562,0.06-1.138,0.067-1.723,0.011
						c-9.166-0.874-18.49-1.361-27.715-1.455c-4.73-0.05-8.526-3.923-8.478-8.651c0.05-4.729,3.917-8.547,8.651-8.477
						c9.706,0.1,19.518,0.613,29.163,1.53c4.709,0.449,8.164,4.63,7.714,9.338C2852.867,524.571,2849.612,527.732,2845.646,528.153z
						 M2742.955,534.156c-4.298,0.456-8.336-2.395-9.266-6.714c-0.996-4.624,1.946-9.179,6.569-10.178
						c9.467-2.038,19.15-3.695,28.78-4.919c0.059-0.01,0.121-0.016,0.181-0.023c4.621-0.49,8.805,2.803,9.396,7.433
						c0.597,4.694-2.72,8.982-7.414,9.578c-9.146,1.166-18.343,2.741-27.338,4.678
						C2743.56,534.075,2743.256,534.125,2742.955,534.156z"/>
					<path style="fill:#91B3FA;" d="M2973.766,567.588c-1.677,0.178-3.424-0.134-5.015-1.008c-3.871-2.126-7.851-4.203-11.829-6.182
						c-4.235-2.104-5.964-7.246-3.858-11.479c2.104-4.237,7.247-5.97,11.481-3.856c4.185,2.079,8.37,4.265,12.444,6.5
						c4.146,2.275,5.664,7.483,3.389,11.627C2978.977,565.746,2976.461,567.302,2973.766,567.588z"/>
				</g>
				<g style="opacity:0.3;">
					<path style="fill:#91B3FA;" d="M3135.441,772.611c-4.11,0.436-8.044-2.16-9.161-6.277c-1.154-4.261-2.417-8.571-3.755-12.805
						c-1.424-4.511,1.078-9.322,5.587-10.746c4.529-1.43,9.322,1.079,10.746,5.588c1.407,4.459,2.738,8.997,3.954,13.484
						c1.237,4.565-1.461,9.268-6.026,10.507C3136.339,772.482,3135.888,772.563,3135.441,772.611z"/>
					<path style="fill:#91B3FA;" d="M2849.115,1191.746c-3.918,0.416-7.859,0.767-11.821,1.053
						c-4.718,0.339-8.818-3.208-9.159-7.926c-0.341-4.717,3.228-8.837,7.924-9.161c9.142-0.661,18.237-1.69,27.134-3.079
						c4.679-0.722,9.052,2.467,9.782,7.14c0.73,4.676-2.469,9.056-7.142,9.784
						C2860.331,1190.417,2854.705,1191.152,2849.115,1191.746z M2792.08,1192.967c-0.475,0.05-0.964,0.062-1.458,0.03
						c-9.536-0.606-19.153-1.624-28.581-3.025c-4.677-0.694-7.907-5.051-7.213-9.727c0.696-4.679,5.06-7.921,9.73-7.213
						c8.955,1.33,18.09,2.295,27.152,2.874c4.719,0.3,8.302,4.37,8.002,9.088C2799.443,1189.221,2796.153,1192.534,2792.08,1192.967
						z M2909.774,1179.537c-4.015,0.426-7.892-2.045-9.096-6.052c-1.361-4.532,1.209-9.306,5.739-10.668
						c8.666-2.602,17.337-5.612,25.776-8.95c4.402-1.732,9.375,0.418,11.113,4.815c1.739,4.401-0.418,9.376-4.816,11.115
						c-8.887,3.513-18.021,6.683-27.146,9.425C2910.822,1179.379,2910.296,1179.482,2909.774,1179.537z M2719.75,1180.262
						c-1.081,0.115-2.201,0.021-3.309-0.302c-9.161-2.684-18.319-5.793-27.216-9.238c-4.41-1.708-6.6-6.667-4.892-11.077
						c1.708-4.413,6.665-6.605,11.078-4.893c8.448,3.271,17.143,6.224,25.844,8.772c4.539,1.328,7.141,6.088,5.811,10.626
						C2726.063,1177.58,2723.098,1179.906,2719.75,1180.262z M2977.276,1150.774c-3.293,0.35-6.635-1.24-8.366-4.309
						c-2.325-4.12-0.869-9.344,3.25-11.669c7.876-4.442,15.673-9.287,23.176-14.396c3.909-2.662,9.237-1.653,11.9,2.259
						c2.661,3.909,1.65,9.234-2.259,11.896c-7.898,5.38-16.107,10.48-24.4,15.159
						C2979.527,1150.306,2978.404,1150.654,2977.276,1150.774z M3036.834,1107.893c-2.633,0.279-5.358-0.662-7.269-2.777
						c-3.168-3.512-2.891-8.928,0.622-12.096c6.734-6.078,13.291-12.509,19.488-19.115c3.231-3.455,8.649-3.63,12.105-0.39
						c3.45,3.237,3.623,8.655,0.388,12.107c-6.521,6.953-13.421,13.72-20.508,20.114
						C3040.265,1106.995,3038.57,1107.709,3036.834,1107.893z M3085.626,1053.049c-2.002,0.213-4.086-0.276-5.858-1.534
						c-3.856-2.736-4.764-8.083-2.026-11.94c5.256-7.404,10.256-15.107,14.862-22.903c2.406-4.07,7.653-5.425,11.73-3.015
						c4.071,2.408,5.422,7.657,3.015,11.73c-4.848,8.202-10.11,16.313-15.64,24.102
						C3090.229,1051.575,3087.985,1052.799,3085.626,1053.049z M3121.294,988.874c-1.387,0.147-2.829-0.043-4.207-0.62
						c-4.362-1.828-6.415-6.845-4.587-11.207c3.508-8.369,6.697-16.98,9.479-25.598c1.453-4.501,6.286-6.972,10.78-5.521
						c4.502,1.453,6.973,6.281,5.52,10.781c-2.93,9.078-6.289,18.147-9.981,26.957
						C3127.044,986.652,3124.3,988.555,3121.294,988.874z M3142.011,918.407c-0.78,0.083-1.585,0.057-2.396-0.086
						c-4.657-0.821-7.768-5.264-6.945-9.92c1.572-8.914,2.784-18.011,3.601-27.046c0.427-4.711,4.605-8.18,9.301-7.756
						c4.711,0.425,8.184,4.591,7.758,9.303c-0.861,9.511-2.137,19.089-3.793,28.473
						C3148.859,915.221,3145.711,918.014,3142.011,918.407z M3146.739,845.16c-0.175,0.018-0.352,0.03-0.529,0.039
						c-4.724,0.212-8.727-3.447-8.938-8.171c-0.299-6.67-0.808-13.408-1.511-20.035c-0.255-2.398-0.537-4.791-0.842-7.17
						c-0.601-4.693,2.715-8.984,7.406-9.583c4.738-0.701,8.981,2.714,9.583,7.403c0.322,2.506,0.617,5.018,0.885,7.543
						c0.74,6.969,1.274,14.061,1.588,21.076C3154.586,840.808,3151.204,844.685,3146.739,845.16z"/>
					<path style="fill:#91B3FA;" d="M2651.817,1151.837c-1.693,0.18-3.455-0.141-5.054-1.028c-4.054-2.251-8.136-4.63-12.135-7.072
						c-4.038-2.465-5.313-7.735-2.848-11.771c2.466-4.036,7.732-5.315,11.772-2.848c3.798,2.318,7.677,4.578,11.525,6.716
						c4.134,2.293,5.626,7.507,3.33,11.643C2656.999,1150.012,2654.495,1151.552,2651.817,1151.837z"/>
				</g>
				<g>
					<path style="fill:#91B3FA;" d="M2652.823,1051.838c1.213,1.201,3.055,1.501,4.587,0.746l43.692-21.547
						c19.39,11.901,40.816,20.797,63.638,26.027l16.092,45.948c0.564,1.612,2.089,2.688,3.797,2.68l58.435-0.281
						c1.708-0.009,3.222-1.1,3.771-2.716l15.649-46.102c22.77-5.45,44.11-14.55,63.384-26.639l43.898,21.126
						c1.539,0.74,3.378,0.423,4.579-0.79l41.121-41.518c1.202-1.214,1.502-3.056,0.746-4.587l-21.546-43.692
						c11.902-19.389,20.797-40.817,26.027-63.638l45.949-16.093c1.612-0.564,2.688-2.089,2.679-3.796l-0.281-58.435
						c-0.008-1.707-1.099-3.222-2.716-3.77l-46.102-15.65c-5.449-22.77-14.549-44.11-26.638-63.384l21.126-43.899
						c0.74-1.538,0.423-3.377-0.79-4.579l-41.518-41.12c-1.213-1.203-3.055-1.501-4.587-0.746l-43.692,21.547
						c-19.389-11.902-40.816-20.798-63.638-26.027l-16.092-45.95c-0.564-1.611-2.089-2.687-3.797-2.68l-58.435,0.282
						c-1.708,0.008-3.222,1.098-3.771,2.716l-15.649,46.102c-22.77,5.449-44.111,14.55-63.385,26.638l-43.897-21.126
						c-1.539-0.741-3.379-0.423-4.58,0.79l-41.12,41.518c-1.202,1.213-1.501,3.055-0.747,4.587l21.547,43.692
						c-11.902,19.389-20.797,40.817-26.027,63.638l-45.95,16.092c-1.611,0.564-2.688,2.089-2.679,3.797l0.281,58.434
						c0.008,1.708,1.098,3.222,2.716,3.771l46.102,15.649c5.449,22.77,14.55,44.11,26.638,63.384l-21.125,43.898
						c-0.741,1.539-0.424,3.377,0.79,4.58L2652.823,1051.838z"/>
					<g>
						<path style="fill:#BDD0FB;" d="M2818.775,907.403c-28.473,3.023-55.693-15.231-63.043-43.766
							c-8.078-31.367,10.866-63.453,42.231-71.533c15.195-3.918,31.004-1.677,44.511,6.299c13.511,7.975,23.108,20.736,27.02,35.93
							c8.079,31.367-10.866,63.453-42.23,71.533C2824.435,906.593,2821.598,907.103,2818.775,907.403z M2807.952,804.183
							c-2.199,0.233-4.392,0.628-6.573,1.189c-24.047,6.193-38.572,30.799-32.379,54.844c6.194,24.048,30.793,38.584,54.846,32.38
							c24.047-6.193,38.572-30.799,32.379-54.844c-3.001-11.651-10.358-21.434-20.717-27.55
							C2827.088,805.234,2817.501,803.169,2807.952,804.183z"/>
					</g>
					<path style="fill:#BDD0FB;" d="M2828.925,991.639c-4.89,0.519-9.835,0.795-14.819,0.82l0,0
						c-1.569,0.008-3.138-0.01-4.707-0.052c-7.735-0.212-15.441-1.039-22.998-2.467c-0.103-0.019-0.206-0.039-0.309-0.058
						c-0.292-0.057-0.584-0.113-0.876-0.173c-0.568-0.111-1.136-0.229-1.702-0.347c-1.49-0.313-2.548-1.549-2.702-2.986
						c-0.037-0.349-0.02-0.711,0.056-1.073c0.389-1.851,2.208-3.03,4.057-2.644c9.527,2.006,19.333,2.998,29.147,2.948
						c48.75-0.226,91.531-25.922,115.789-64.385c13.495-21.392,21.257-46.737,21.125-73.851c-0.022-4.755-0.284-9.474-0.781-14.138
						c-3.336-31.389-17.25-60.435-39.98-82.947c-26.109-25.86-60.727-40.005-97.473-39.828
						c-75.892,0.373-137.279,62.38-136.914,138.236c0.022,4.677,0.281,9.336,0.773,13.956c2.129,20.023,8.615,39.357,19.062,56.593
						c0.27,0.446,0.427,0.927,0.477,1.413c0.136,1.277-0.458,2.581-1.631,3.291c-1.622,0.976-3.725,0.469-4.706-1.155
						c-10.967-18.095-17.779-38.395-20.014-59.415c-0.517-4.85-0.788-9.739-0.813-14.648
						c-0.384-79.642,64.119-144.739,143.732-145.123c38.578-0.186,74.918,14.664,102.328,41.813
						c23.864,23.633,38.47,54.125,41.973,87.078c0.52,4.897,0.795,9.85,0.82,14.839c0.184,38.58-14.664,74.921-41.811,102.331
						C2892.388,973.534,2861.885,988.14,2828.925,991.639z"/>
				</g>
			</g>
			<g>
				<g style="opacity:0.3;">
					<path style="fill:#91B3FA;" d="M2220.64,1185.391c-2.275,0.242-4.529-1.02-5.446-3.245c-1.713-4.151-3.324-8.411-4.785-12.66
						c-0.95-2.761,0.517-5.769,3.281-6.722c2.763-0.963,5.772,0.52,6.722,3.281c1.393,4.049,2.928,8.109,4.562,12.071
						c1.115,2.697-0.173,5.789-2.872,6.907C2221.622,1185.219,2221.131,1185.339,2220.64,1185.391z"/>
					<path style="fill:#91B3FA;" d="M2208.64,1146.511c-2.666,0.283-5.166-1.493-5.728-4.171c-1.593-7.566-2.814-15.301-3.63-22.985
						c-0.172-1.618-0.326-3.243-0.466-4.875c-0.244-2.914,2.081-5.379,4.823-5.722c2.911-0.247,5.47,1.913,5.719,4.821
						c0.132,1.56,0.279,3.114,0.443,4.66c0.778,7.33,1.943,14.707,3.46,21.922c0.603,2.861-1.227,5.663-4.085,6.267
						C2208.996,1146.463,2208.817,1146.492,2208.64,1146.511z M2204,1091.786c-0.249,0.026-0.505,0.038-0.76,0.029
						c-2.921-0.111-5.199-2.565-5.092-5.485c0.346-9.367,1.278-18.795,2.769-28.017c0.465-2.886,3.196-4.838,6.065-4.378
						c2.886,0.467,4.844,3.179,4.378,6.064c-1.422,8.8-2.309,17.792-2.641,26.726
						C2208.619,1089.384,2206.573,1091.512,2204,1091.786z M2212.768,1037.57c-0.667,0.071-1.359,0.014-2.043-0.183
						c-2.803-0.819-4.409-3.761-3.59-6.564c2.631-8.98,5.85-17.898,9.576-26.495c1.162-2.685,4.268-3.913,6.957-2.749
						c2.679,1.16,3.911,4.276,2.751,6.954c-3.552,8.2-6.624,16.698-9.13,25.264
						C2216.667,1035.914,2214.836,1037.35,2212.768,1037.57z M2234.598,987.166c-1.089,0.116-2.221-0.107-3.238-0.7
						c-2.516-1.484-3.357-4.729-1.873-7.245c4.76-8.079,10.062-15.929,15.763-23.339c1.783-2.314,5.106-2.74,7.417-0.964
						c2.316,1.78,2.749,5.1,0.967,7.419c-5.435,7.06-10.494,14.552-15.031,22.254
						C2237.718,986.093,2236.208,986.995,2234.598,987.166z M2268.075,943.625c-1.521,0.161-3.101-0.336-4.276-1.494
						c-2.079-2.049-2.102-5.397-0.053-7.479c6.575-6.667,13.622-12.994,20.949-18.8c2.289-1.822,5.616-1.432,7.431,0.858
						s1.43,5.619-0.858,7.43c-6.99,5.542-13.713,11.575-19.985,17.939C2270.388,942.985,2269.249,943.5,2268.075,943.625z
						 M2311.1,909.532c-1.97,0.209-3.979-0.705-5.079-2.51c-1.519-2.493-0.726-5.746,1.766-7.267
						c7.997-4.87,16.375-9.286,24.897-13.121c2.676-1.193,5.796-0.007,6.996,2.655c1.199,2.662,0.01,5.796-2.652,6.993
						c-8.128,3.658-16.112,7.866-23.736,12.509C2312.601,909.212,2311.853,909.453,2311.1,909.532z M2361.141,887
						c-2.465,0.262-4.852-1.246-5.608-3.701c-0.86-2.792,0.706-5.753,3.497-6.615c8.918-2.749,18.126-4.973,27.369-6.615
						c2.891-0.463,5.625,1.414,6.133,4.289c0.51,2.876-1.408,5.62-4.284,6.132c-8.819,1.56-17.6,3.682-26.103,6.304
						C2361.811,886.898,2361.475,886.964,2361.141,887z M2442.736,877.663c-0.303,0.032-0.617,0.039-0.934,0.016
						c-7.693-0.539-15.55-0.666-23.356-0.378c-1.183,0.037-2.343,0.088-3.5,0.153c-2.919,0.154-5.41-2.08-5.567-4.998
						c-0.162-2.923,2.089-5.5,4.996-5.569c1.235-0.064,2.467-0.122,3.708-0.16c8.155-0.299,16.392-0.166,24.459,0.401
						c2.916,0.205,5.111,2.73,4.906,5.645C2447.266,875.369,2445.24,877.397,2442.736,877.663z"/>
				</g>
				<g style="opacity:0.3;">
					<path style="fill:#91B3FA;" d="M2453.65,1321.857c-2.872,0.305-5.464-1.758-5.809-4.635c-0.347-2.898,1.724-5.534,4.625-5.878
						c8.733-1.041,17.476-2.624,25.987-4.707c2.826-0.664,5.702,1.041,6.396,3.882c0.694,2.84-1.046,5.7-3.882,6.396
						c-8.927,2.179-18.092,3.842-27.246,4.934C2453.722,1321.849,2453.673,1321.855,2453.65,1321.857z M2426.635,1323.442
						c-0.19,0.02-0.379,0.03-0.573,0.03c-9.208-0.009-18.51-0.58-27.646-1.693c-2.9-0.357-4.964-2.99-4.609-5.889
						c0.351-2.905,3.006-4.958,5.889-4.615c8.718,1.064,17.593,1.607,26.381,1.62c2.92,0.002,5.285,2.374,5.281,5.294
						C2431.354,1320.92,2429.286,1323.161,2426.635,1323.442z M2506.11,1309.016c-2.333,0.248-4.629-1.088-5.502-3.385
						c-1.035-2.726,0.337-5.781,3.068-6.819c8.226-3.127,16.329-6.777,24.087-10.858c2.596-1.351,5.784-0.365,7.142,2.224
						c1.36,2.583,0.365,5.784-2.22,7.144c-8.133,4.276-16.63,8.103-25.253,11.377
						C2506.995,1308.865,2506.552,1308.969,2506.11,1309.016z M2372.997,1316.866c-0.598,0.063-1.218,0.026-1.836-0.127
						c-8.942-2.225-17.837-5.026-26.434-8.326c-2.729-1.045-4.09-4.106-3.045-6.835c1.047-2.719,4.106-4.082,6.833-3.042
						c8.198,3.145,16.676,5.813,25.202,7.937c2.833,0.707,4.561,3.578,3.854,6.411
						C2377.02,1315.099,2375.144,1316.638,2372.997,1316.866z M2553.906,1283.875c-1.862,0.198-3.773-0.602-4.911-2.247
						c-1.666-2.405-1.065-5.699,1.335-7.362c7.218-4.994,14.203-10.484,20.765-16.323c2.185-1.946,5.529-1.745,7.469,0.438
						c1.941,2.183,1.745,5.529-0.438,7.469c-6.883,6.117-14.206,11.876-21.771,17.116
						C2555.6,1283.488,2554.756,1283.785,2553.906,1283.875z M2594.277,1248.002c-1.426,0.151-2.905-0.274-4.062-1.294
						c-2.19-1.933-2.399-5.277-0.466-7.467c5.824-6.598,11.298-13.604,16.269-20.822c1.658-2.41,4.955-3.014,7.357-1.358
						c2.407,1.656,3.013,4.947,1.357,7.352c-5.212,7.571-10.948,14.917-17.051,21.83
						C2596.771,1247.275,2595.546,1247.867,2594.277,1248.002z M2624.895,1203.486c-1.001,0.106-2.043-0.069-3.003-0.574
						c-2.59-1.351-3.592-4.548-2.239-7.138c4.079-7.794,7.711-15.909,10.795-24.116c1.03-2.728,4.08-4.116,6.812-3.086
						c2.735,1.029,4.118,4.077,3.089,6.814c-3.237,8.603-7.045,17.116-11.319,25.294
						C2628.177,1202.307,2626.595,1203.306,2624.895,1203.486z"/>
					<path style="fill:#91B3FA;" d="M2322.322,1297.411c-1.015,0.108-2.071-0.077-3.04-0.592c-3.997-2.126-7.948-4.382-11.747-6.7
						c-2.491-1.523-3.281-4.779-1.759-7.273c1.526-2.484,4.777-3.276,7.273-1.759c3.622,2.213,7.393,4.363,11.206,6.395
						c2.579,1.372,3.556,4.578,2.183,7.155C2325.579,1296.244,2324.009,1297.232,2322.322,1297.411z"/>
				</g>
				<g>
					<path style="fill:#91B3FA;" d="M2319.481,1228.996c0.811,0.804,2.044,1.005,3.069,0.499l29.237-14.418
						c12.974,7.964,27.312,13.917,42.583,17.416l10.768,30.747c0.377,1.078,1.398,1.798,2.54,1.793l39.102-0.188
						c1.143-0.006,2.156-0.736,2.523-1.817l10.472-30.849c15.237-3.647,29.517-9.736,42.414-17.825l29.375,14.137
						c1.03,0.495,2.26,0.283,3.065-0.529l27.516-27.782c0.804-0.813,1.005-2.045,0.499-3.069l-14.418-29.237
						c7.964-12.974,13.917-27.313,17.416-42.584l30.747-10.768c1.079-0.378,1.798-1.398,1.793-2.54l-0.188-39.102
						c-0.005-1.143-0.735-2.156-1.817-2.523l-30.849-10.472c-3.646-15.237-9.736-29.517-17.825-42.414l14.137-29.375
						c0.495-1.029,0.283-2.26-0.529-3.064l-27.782-27.516c-0.812-0.804-2.044-1.004-3.069-0.499l-29.237,14.419
						c-12.974-7.965-27.312-13.917-42.583-17.416l-10.769-30.748c-0.378-1.078-1.397-1.798-2.54-1.793l-39.102,0.188
						c-1.143,0.005-2.156,0.735-2.523,1.817l-10.471,30.849c-15.237,3.646-29.517,9.736-42.415,17.825l-29.374-14.136
						c-1.03-0.496-2.261-0.283-3.065,0.529l-27.516,27.782c-0.804,0.812-1.005,2.044-0.499,3.069l14.417,29.237
						c-7.964,12.974-13.916,27.313-17.416,42.584l-30.748,10.768c-1.077,0.377-1.799,1.398-1.792,2.541l0.188,39.101
						c0.006,1.143,0.735,2.156,1.817,2.524l30.849,10.472c3.647,15.236,9.736,29.516,17.824,42.414l-14.136,29.375
						c-0.495,1.03-0.283,2.26,0.529,3.065L2319.481,1228.996z"/>
					<g>
						<path style="fill:#BDD0FB;" d="M2430.545,1133.058c-8.485,0.901-17.002-0.932-24.483-5.348
							c-9.202-5.433-15.738-14.126-18.403-24.476c-5.503-21.358,7.399-43.214,28.763-48.724
							c21.403-5.472,43.226,7.406,48.727,28.768c2.667,10.35,1.143,21.119-4.291,30.319c-5.432,9.205-14.125,15.743-24.478,18.405
							C2434.447,1132.498,2432.495,1132.851,2430.545,1133.058z M2423.314,1063.985c-1.416,0.15-2.835,0.405-4.254,0.769
							c-15.714,4.052-25.204,20.129-21.157,35.844c1.961,7.609,6.767,14.008,13.536,18.001c6.772,3.998,14.69,5.11,22.306,3.159l0,0
							c7.612-1.961,14.008-6.77,18.004-13.537c3.998-6.772,5.118-14.693,3.156-22.308
							C2451.225,1071.619,2437.581,1062.47,2423.314,1063.985z"/>
					</g>
					<path style="fill:#BDD0FB;" d="M2437.534,1191.7c-3.329,0.353-6.701,0.539-10.117,0.56c-6.783,0.034-13.576-0.621-20.208-1.953
						c-0.297-0.062-0.595-0.124-0.893-0.186c-2.301-0.483-3.934-2.392-4.173-4.611c-0.057-0.539-0.031-1.098,0.087-1.656
						c0.601-2.859,3.41-4.674,6.265-4.083c6.18,1.302,12.528,1.943,18.867,1.909l0.002,0c0.348-0.001,0.698-0.007,1.043-0.012
						c15.002-0.216,29.382-4.163,42.119-11.333c6.914-3.892,13.344-8.741,19.123-14.471c0.047-0.047,0.094-0.093,0.141-0.14
						c0.143-0.146,0.287-0.285,0.427-0.43c16.739-16.904,25.898-39.313,25.782-63.102c-0.012-3.079-0.183-6.131-0.504-9.151
						c-2.16-20.32-11.169-39.124-25.884-53.701c-16.904-16.74-39.313-25.893-63.1-25.778c-23.773,0.124-46.11,9.487-62.853,26.386
						c-16.739,16.903-25.897,39.313-25.782,63.102c0.012,3.027,0.182,6.043,0.499,9.032c1.379,12.965,5.577,25.48,12.34,36.636
						c0.416,0.688,0.659,1.431,0.736,2.182c0.209,1.972-0.707,3.987-2.517,5.083c-2.502,1.507-5.75,0.719-7.267-1.784
						c-7.566-12.484-12.266-26.489-13.81-40.989c-0.355-3.349-0.545-6.721-0.561-10.106c-0.127-26.619,10.117-51.689,28.849-70.601
						c18.729-18.907,43.686-29.411,70.314-29.52c26.616-0.13,51.686,10.112,70.596,28.846
						c16.465,16.303,26.542,37.341,28.958,60.076c0.358,3.375,0.55,6.793,0.567,10.235
						C2526.825,1143.667,2487.714,1186.373,2437.534,1191.7z"/>
				</g>
			</g>
		</g>
	</g>
</g>
</svg>
